<svg id="Layer_1" data-name="Layer 1" xmlns="http://www.w3.org/2000/svg" viewBox="0 0 429.3 228"><defs><style>.cls-1{fill:#bcbec0;}.cls-2{fill:#231f20;}.cls-3{fill:#eb2227;}.cls-4{fill:#f47b30;}.cls-5{fill:#fff;}.cls-6{fill:#ffc216;}</style></defs><title>NBL Hungry Jacks Logo_Landscape</title><path class="cls-1" d="M429.3,21.14c0,21.68,0,54.48-.1,56.05l0,51.4v38.57l.08,39.76A21.84,21.84,0,0,1,407.39,228l-303.26-.13v-.44C46,222.46,0,173.29,0,114A114,114,0,0,1,113.87.12L408.17,0A21.13,21.13,0,0,1,429.3,21.14"/><path class="cls-2" d="M420.53,21.13A12.36,12.36,0,0,0,408.17,8.77l-294.3.13a105.09,105.09,0,0,0-1,210.17v0l294.49.13a13.15,13.15,0,0,0,13.14-12.65l-.09-39.43V128.59l0-51.75c0-1.05.09-26.21.1-55.7"/><path class="cls-3" d="M411.75,21.14a3.59,3.59,0,0,0-3.58-3.59L156,17.66a105.14,105.14,0,0,1-.19,192.69l251.56.11a4.36,4.36,0,0,0,4.37-4.2l-.1-39.09V76.56C411.7,74.93,411.75,50.88,411.75,21.14Z"/><path class="cls-4" d="M113.58,185.17c-35.88,0-67.23-14.58-83.8-36.15a90.82,90.82,0,0,0,167.6,0c-16.56,21.56-47.92,36.15-83.8,36.15"/><path class="cls-4" d="M29.78,79c16.56-21.57,47.92-36.15,83.8-36.15S180.81,57.41,197.38,79a90.82,90.82,0,0,0-167.6,0"/><path class="cls-5" d="M209.77,114a96.2,96.2,0,1,0-96.2,96.19A96.3,96.3,0,0,0,209.77,114m-180,35c16.57,21.56,47.92,36.15,83.8,36.15s67.23-14.59,83.8-36.15a90.82,90.82,0,0,1-167.6,0M197.37,79c-16.56-21.57-47.92-36.15-83.8-36.15S46.34,57.41,29.78,79a90.82,90.82,0,0,1,167.6,0m6.9,31.55H162.63V116h41.71c-1.46,35.32-41.59,63.73-90.76,63.73S24.29,151.31,22.82,116H53.66v-5.46H22.87c2.5-34.63,42.23-62.25,90.71-62.25s88.2,27.61,90.7,62.24"/><polygon class="cls-5" points="71.96 110.07 71.96 150.45 58.39 150.45 58.39 75.62 73.97 75.62 83.19 116.22 83.19 75.62 97.18 75.62 97.18 150.45 80.97 150.45 71.96 110.07"/><path class="cls-5" d="M137.67,136.67c0,10-4.13,13.78-12.82,13.78H102.59V75.62h22.26c8.69,0,12.82,3.82,12.82,13.78v8.48c0,8.69-2.54,12.51-8.37,13.57,5.83,1,8.37,4.88,8.37,13.46ZM122.52,89.4a2.48,2.48,0,0,0-2.33-2.75h-2.54v19.29h2.44a2.52,2.52,0,0,0,2.44-2.65Zm0,30.42a2.52,2.52,0,0,0-2.44-2.65h-2.44v22.26h2.54a2.48,2.48,0,0,0,2.33-2.76Z"/><polygon class="cls-5" points="142.79 75.62 157.84 75.62 157.84 138.79 168.76 138.79 168.76 150.45 142.79 150.45 142.79 75.62"/><path class="cls-5" d="M315.2,199.56c-46.17,0-72.54-7.4-81.79-22.86a23.17,23.17,0,0,1-2.81-9.5l0-90.47s0-.8-.07-1.95V70.24c0-.8.08-1.54.16-2.15,2.46-19.26,31.22-38.36,84.47-38.36s82,19.09,84.48,38.36a70.05,70.05,0,0,1,.09,8.65l0,90.47a23.13,23.13,0,0,1-2.81,9.5c-9.26,15.45-35.62,22.86-81.8,22.86"/><path class="cls-5" d="M387,192.68c.65,0,1.23,0,1.23-.82,0-.63-.57-.74-1.11-.74h-1v1.57Zm-.92,2.84h-.77v-5.06h1.93c1.19,0,1.79.44,1.79,1.44a1.31,1.31,0,0,1-1.31,1.39l1.44,2.23h-.86L387,193.33h-.88Zm1,1.21a3.66,3.66,0,1,0-3.57-3.67,3.55,3.55,0,0,0,3.57,3.67m-4.46-3.67a4.44,4.44,0,1,1,4.46,4.4,4.38,4.38,0,0,1-4.46-4.4"/><path class="cls-6" d="M314.92,194.36c49.54,0,74.63-8.7,79.13-25.32.75-3-1.72-4-4.19-4H240c-2.47,0-4.93.92-4.19,4,4.5,16.62,29.59,25.32,79.13,25.32"/><path class="cls-6" d="M315,34.92c-49.54,0-75.95,17-79.13,34.11-.75,3.93,1.72,5.28,4.19,5.28H389.91c2.47,0,4.93-1.35,4.19-5.28-3.19-17.1-29.59-34.11-79.13-34.11"/><path class="cls-3" d="M379,89.55l-3.15-5c-.92-1.74-3.88-2-5.44-1.48a3.42,3.42,0,0,0-2.11,4.7l6.21,10.15a3.63,3.63,0,0,1,.67,2.08v7.33c0,2.06,2.51,3,4.22,3s4.22-1,4.22-3V100a2.89,2.89,0,0,1,.66-2.05l6.22-10.17a3.47,3.47,0,0,0-2.11-4.7c-1.54-.62-4.52-.25-5.44,1.48l-3.17,5c-.26.43-.55.43-.8,0M359.91,124c-1.23.78,0,2.41,1,2.33s5.68-4.09,3.9-8.07a3,3,0,0,0-2.72-1.8,2.85,2.85,0,0,0-2.91,2.8,2.6,2.6,0,0,0,1.52,2.62c.37.14.27.42.23.6a3.1,3.1,0,0,1-1,1.53m16.81,32.78c-5.35,0-8.53-1-11.17-3.43a4.46,4.46,0,0,1-.4-5.79c.81-1.24,2.61-3.17,5.87-1.52,2.9,1.46,3.27,1.12,4.64,1.12a2.92,2.92,0,0,0,2.95-3.22c0-1.66-1.47-2.25-2.56-2.49l-2.39-.49c-4.65-.93-9.29-4.46-9.28-9.74,0-8.71,5.42-14.58,14.21-14.58h0c4.77,0,7,.75,9.75,3.43a4.38,4.38,0,0,1,.39,5.72,4.09,4.09,0,0,1-5.88,1.51c-2.39-1.27-2.85-1.11-4-1.11a2.54,2.54,0,0,0-2.65,2.75c0,1.36,1.52,2,2.43,2.28l2.69.68c5,1.27,9.42,4.85,9.47,11.08.07,8-4.4,13.79-14.13,13.79M357.22,125l-7.92,9.66s-1.63,1.68-.36,3.36c1.41,1.86,7.71,9.22,7.71,9.22s4.2,4-.12,7.78-6.76.53-6.76.53l-10.25-12.39s-1-1-1,.83l0-.12v8.6c0,3-3.3,4.44-5.55,4.44s-5.55-1.43-5.55-4.44V121.13c0-3,3.3-4.44,5.55-4.44s5.55,1.43,5.55,4.44v8.51l0-.11c0,1.06.66,1.1,1.12.49l9.23-11.07c2.06-2.64,5.14-2.71,7.65-.58,2.22,1.89,2.67,4.23.76,6.62M250.73,156.71c8.53,0,11-5.43,11-11.27l0-.62v-24c0-3-3.29-4.42-5.54-4.42s-5.53,1.42-5.53,4.42v22.59c.24,3.59-2.08,4.52-3,1.86-1.28-3.19-4.48-2.49-5.72-1.86a4.45,4.45,0,0,0-2.25,5.35c1.3,4.72,4.63,7.88,11,7.93m30.49-14.54h-3.68a.44.44,0,0,1-.46-.66l1.8-5.85c.19-.85.91-1,1.16,0l1.8,5.86c.19.54,0,.66-.63.66m3.62,8.88.54,1.79c.61,2.62,4.12,4.13,6.15,3.76,2.27-.4,4.86-2.93,3.91-5.84L286,120.47c-.87-3-4.41-3.9-6.57-4s-5.73,1-6.57,4l-9.41,30.29c-1,2.91,1.65,5.44,3.91,5.84,2,.36,5.53-1.14,6.15-3.76l.54-1.79a.76.76,0,0,1,.88-.69h9c.65,0,.7.26.83.69m21.27-14.28c0,5.38,2.05,10.18,7.92,10.18,1.58,0,1.78-.21,3.77-1.13,3.5-1.62,5.37.28,6.23,1.58a4.65,4.65,0,0,1-.41,6.08c-2.21,2.26-5.36,3.59-10.15,3.59-11.08,0-18.77-8.33-18.77-20.34s7.69-20.34,18.77-20.34c4.69,0,7.69,1.07,10.15,3.59a4.6,4.6,0,0,1,.41,6c-.86,1.3-2.73,3.21-6.23,1.58-1.78-.83-2.12-1.13-3.77-1.13-5.87,0-7.93,4.93-7.93,10.31Zm-56.95-36.61c-.53,0-1,.19-1,.85v6.25c0,2.06-2.5,3-4.22,3s-4.22-1-4.22-3V85.81c0-2.06,2.5-3,4.22-3s4.22,1,4.22,3v5.73a.83.83,0,0,0,.93.88h4.31c.56,0,.93-.24.93-.88V85.81c0-2.06,2.5-3,4.22-3s4.22,1,4.22,3v21.45c0,2.06-2.5,3-4.22,3s-4.22-1-4.22-3V101c0-.67-.44-.85-1-.85Zm84.67,0c-3.06,0-3.56-2.08-3.56-3.61s.65-3.49,3.63-3.49h6c2.11,0,3.41.82,3.41,2.84v7.67c0,4.4-5.59,6.79-11.78,6.79-8,0-14.22-4.41-14.22-14.18,0-8.29,5.87-14,14.31-14,4.32,0,7.6.92,9.88,2.91a3.16,3.16,0,0,1,.32,4.34A3.54,3.54,0,0,1,337,90.45a9.61,9.61,0,0,0-5-1.22c-4.47,0-6,3.31-6,7s1.93,6.76,5.31,6.76c2.76,0,3.73-.85,3.63-2.29,0-.55-.25-.61-1.09-.61m21.94-5.82a2.89,2.89,0,0,0,3.05-3c0-1.84-.58-3-3.2-3-1,0-1.21.2-1.52.6V93.8c0,.52.59.5,1.66.5m7.73,4c-.39.29-.34.52-.16.78l4.59,6c1.2,1.56.05,3.74-1.51,4.72-1.4.88-4.41,1-5.61-.55L355,101.59c-.33-.4-.81-.24-.81.29v5.63c0,2-2.45,2.84-4.12,2.84s-4.12-.86-4.12-2.84V85.76c0-2,2.14-3,4.12-3h7.78c6.93,0,9.31,5.35,9.31,8.16a8.46,8.46,0,0,1-3.61,7.38m-87.07,12.16c5.05,0,10.85-3.29,10.85-8V85.39c0-2-2.46-2.89-4.14-2.89s-4.14.87-4.14,2.89V100.8c0,1.12-1.35,1.77-2.57,1.77s-2.57-.65-2.57-1.77V85.39c0-2-2.46-2.89-4.14-2.89s-4.14.87-4.14,2.89v17.06c0,4.68,5.8,8,10.85,8m22-11.33v8.1c0,1.84-2.53,3.1-4.26,3.1s-4.27-1-4.27-3.1V85.45c0-2.1,2.54-3.26,4.27-3.26a5.54,5.54,0,0,1,4.55,2.56l6.78,8.54c.53.68,1.31.78,1.31.18v-8c0-2.1,2.53-3.26,4.26-3.26s4.26,1.15,4.26,3.26v21.73c0,2.09-2.53,3.1-4.26,3.1-1.49,0-2.48,0-4.28-2.24s-7.2-9-7.2-9c-.37-.48-1.16-.59-1.16,0"/></svg>