<?xml version="1.0"?>
<svg xmlns="http://www.w3.org/2000/svg" viewBox="0 0 64 64" width="512" height="512"><g id="Drone"><path d="M32,18v2a7.032,7.032,0,0,1,6.061,3.5l1.731-1A9.04,9.04,0,0,0,32,18Z"/><path d="M61,12a1,1,0,0,0,1-1V7a1,1,0,0,0-1-1H55V5a3,3,0,0,0-6,0V6H43a1,1,0,0,0-1,1v4a1,1,0,0,0,1,1h6V26H44.949a12.987,12.987,0,0,0-25.9,0H15V12h6a1,1,0,0,0,1-1V7a1,1,0,0,0-1-1H15V5A3,3,0,0,0,9,5V6H3A1,1,0,0,0,2,7v4a1,1,0,0,0,1,1H9V26H7a5.006,5.006,0,0,0-5,5v2a5.006,5.006,0,0,0,5,5H8.667L2.04,60.72A1,1,0,0,0,3,62H7a1,1,0,0,0,.96-.72L14.75,38H27v3a1,1,0,0,0,1,1h1v2.685A7.035,7.035,0,0,0,25.685,48H24a3.015,3.015,0,0,0-3,3,3,3,0,0,0,3,3h1.685A6.994,6.994,0,1,0,35,44.685V42h1a1,1,0,0,0,1-1V38H50.219L56.03,61.243A1,1,0,0,0,57,62h4a1,1,0,0,0,.97-1.243L56.281,38H57a5.006,5.006,0,0,0,5-5V31a5.006,5.006,0,0,0-5-5H55V12ZM51,5a1,1,0,0,1,2,0V6H51ZM44,8H60v2H44ZM32,16A11.015,11.015,0,0,1,42.955,26H21.045A11.015,11.015,0,0,1,32,16ZM11,5a1,1,0,0,1,2,0V6H11ZM4,8H20v2H4Zm7,4h2V26H11ZM6.25,60H4.333L10.75,38h1.917ZM24,52a1,1,0,0,1-1-1,.974.974,0,0,1,.306-.712A.957.957,0,0,1,24,50h1.08a14.2,14.2,0,0,0,0,2Zm13-1a5,5,0,1,1-5-5A5.006,5.006,0,0,1,37,51Zm-4-6.92a6.29,6.29,0,0,0-2,0V42h2ZM35,40H29V38h6ZM59.719,60H57.781l-5.5-22h1.938ZM60,31v2a3,3,0,0,1-3,3H7a3,3,0,0,1-3-3V31a3,3,0,0,1,3-3H57A3,3,0,0,1,60,31Zm-7-5H51V12h2Z"/><path d="M29,51a3,3,0,1,0,3-3A3,3,0,0,0,29,51Zm4,0a1,1,0,1,1-1-1A1,1,0,0,1,33,51Z"/><path d="M36,29H28a1,1,0,0,0-1,1v4a1,1,0,0,0,1,1h8a1,1,0,0,0,1-1V30A1,1,0,0,0,36,29Zm-1,4H29V31h6Z"/></g></svg>
