<?xml version="1.0"?>
<svg xmlns="http://www.w3.org/2000/svg" viewBox="0 0 64 64" width="512" height="512"><g id="outline"><path d="M12,59.907a1,1,0,0,0,.872,1.085l8,1a1,1,0,0,0,1.093-.744L32,22.035,42.031,61.248A1,1,0,0,0,43,62a.884.884,0,0,0,.125-.008l8-1A1,1,0,0,0,52,59.907L48,16.929l-1-14A1,1,0,0,0,46,2H18a1,1,0,0,0-1,.929L16.1,15.56h0v0L16,16.907Zm34.39-38.626.891,9.578c-1.141,3.045-2.633,7.023-4.052,10.791a36.5,36.5,0,0,0-1.885,8.859L37.712,36.3a34.167,34.167,0,0,1,5.067-9.224A43,43,0,0,0,46.394,21.281Zm-.44-4.884c-.021.131-.04.259-.069.383-.789,3.495-2.71,6.239-4.743,9.144a44.206,44.206,0,0,0-4.281,7.043L33,17.874V8.931l12.358-.883ZM31,17.874,27.2,32.736A44.938,44.938,0,0,0,23.024,25.9C21,23,19.087,20.268,18.3,16.781c-.067-.3-.129-.711-.19-1.236l.535-7.5L31,8.931Zm-9.614,9.173a34.584,34.584,0,0,1,4.972,8.975l-3.587,14.02a35.687,35.687,0,0,0-1.834-8.393c-1.356-3.623-2.792-7.442-3.92-10.44l-.269-.713.889-9.554A40.681,40.681,0,0,0,21.386,27.047ZM20.25,59.9l-6.165-.77,2.24-24.078c.87,2.315,1.821,4.85,2.738,7.3,1.64,4.384,2.04,10.028,2.085,14.038Zm23.5,0-.739-2.887c.017-4.206.4-10.116,2.094-14.658.874-2.318,1.774-4.715,2.605-6.928l2.2,23.7ZM45.069,4l.147,2.053L32,7,18.784,6.053,18.931,4Z"/></g></svg>
