<svg height="512" viewBox="0 0 64 64" width="512" xmlns="http://www.w3.org/2000/svg"><path d="m47 8h-3.28l-1.772-5.316a1 1 0 0 0 -.948-.684h-18a1 1 0 0 0 -.948.684l-1.772 5.316h-3.28a11.013 11.013 0 0 0 -11 11v30a1 1 0 0 0 1 1v2a2 2 0 0 0 2 2h5v2a2 2 0 0 0 2 2v2a2 2 0 0 0 2 2h28a2 2 0 0 0 2-2v-2a2 2 0 0 0 2-2v-2h5a2 2 0 0 0 2-2v-2a1 1 0 0 0 1-1v-30a11.013 11.013 0 0 0 -11-11zm9 11v29h-6v-37.475a9.008 9.008 0 0 1 6 8.475zm-40 37v-10h15v10zm32-24h-15v-10h15zm-17 0h-15v-10h15zm-15 12v-10h15v10zm17-10h15v10h-15zm10.255-24h3.745a8.935 8.935 0 0 1 1 .059v9.941h-15v-4.406zm-16.514-6h10.518l-5.259 9.015zm15.046 4.522-7.114 3.878 4.9-8.4h.7zm-18.066-4.522h.7l4.9 8.4-7.108-3.878zm-2.976 6 10.255 5.594v4.406h-15v-9.941a8.935 8.935 0 0 1 1-.059zm-12.745 9a9.008 9.008 0 0 1 6-8.475v37.475h-6zm1 33v-2h5v2zm9 6h13v2h-13zm28 2h-13v-2h13zm2-4h-15v-10h15zm7-4h-5v-2h5z"/></svg>