<svg id="Capa_1" enable-background="new 0 0 512.136 512.136" height="512" viewBox="0 0 512.136 512.136" width="512" xmlns="http://www.w3.org/2000/svg"><path d="m488.522 207.551-68.62-138.438c-1.702-3.434-4.599-6.112-8.151-7.541l-67.403-27.121 1.528-4.132c.069-.187.131-.376.185-.567 1.503-5.332-.753-11.068-5.485-13.949l-24.17-14.71c-1.176-.715-2.525-1.093-3.9-1.093h-112.875c-1.375 0-2.724.378-3.899 1.093l-24.17 14.71c-4.733 2.881-6.988 8.618-5.484 13.95.054.191.115.38.184.566l1.632 4.411-67.458 26.834c-3.583 1.425-6.498 4.112-8.21 7.565l-68.613 138.423c-2.788 5.625-.701 12.471 4.749 15.585l75.178 42.959v172.253c0 4.142 3.358 7.5 7.5 7.5s7.5-3.358 7.5-7.5v-44.982h275.057v102.245c0 .84-.684 1.524-1.523 1.524h-272.01c-.84 0-1.523-.684-1.523-1.524v-27.263c0-4.142-3.358-7.5-7.5-7.5s-7.5 3.358-7.5 7.5v27.263c0 9.111 7.413 16.524 16.523 16.524h272.01c9.111 0 16.523-7.413 16.523-16.524v-229.516l75.179-42.959c5.449-3.116 7.534-9.962 4.746-15.586zm-188.903-95.424-26.928-14.77 43.432-78.876 14.806 9.011zm-43.534-15.711c-.032-.06-.065-.12-.098-.18-.088-.158-.188-.305-.286-.453l-44.48-80.783h89.694zm-60.071-77.935 43.247 78.541-26.773 15.025-31.279-84.555zm-77.474 359.886v-12.231h199.148c4.143 0 7.5-3.358 7.5-7.5s-3.357-7.5-7.5-7.5h-199.148v-11.829h275.057v11.829h-45.908c-4.143 0-7.5 3.358-7.5 7.5s3.357 7.5 7.5 7.5h45.908v12.231zm290.056-129.547v-76.184c0-4.142-3.357-7.5-7.5-7.5s-7.5 3.358-7.5 7.5v151.67h-275.056v-151.67c0-4.142-3.358-7.5-7.5-7.5s-7.5 3.358-7.5 7.5v76.184l-65.179-37.245 67.304-135.782c.065-.132.177-.234.314-.289l67.12-26.7 26.803 72.454c1.154 3.119 3.606 5.567 6.727 6.715 3.122 1.148 6.574.874 9.475-.754l30.394-17.056 2.072 3.763v120.064c0 4.142 3.358 7.5 7.5 7.5 4.143 0 7.5-3.358 7.5-7.5v-120.064l1.888-3.429 30.66 16.817c1.693.929 3.57 1.399 5.456 1.399 1.341 0 2.687-.238 3.973-.718 3.095-1.156 5.527-3.596 6.675-6.696l26.921-72.773 67.012 26.963c.136.055.246.157.311.288l67.312 135.798z"/><circle cx="282.226" cy="145.417" r="7.082"/><circle cx="282.226" cy="174.098" r="7.082"/><circle cx="282.226" cy="202.778" r="7.082"/></svg>