<svg height="512" viewBox="0 0 64 64" width="512" xmlns="http://www.w3.org/2000/svg"><g id="Shorts-2" data-name="Shorts"><path d="m61.9 20.553-4.9-9.789v-7.764a1 1 0 0 0 -1-1h-48a1 1 0 0 0 -1 1v7.764l-4.895 9.789a1 1 0 0 0 -.105.447v34a1 1 0 0 0 1 1h.153l.861 5.165a1 1 0 0 0 .986.835h22a1 1 0 0 0 .986-.835l.861-5.165h.153a1 1 0 0 0 1-1v-21h4v21a1 1 0 0 0 1 1h.153l.861 5.165a1 1 0 0 0 .986.835h22a1 1 0 0 0 .986-.835l.861-5.165h.153a1 1 0 0 0 1-1v-34a1 1 0 0 0 -.1-.447zm-1.9 4.447h-4.562l-5.438-5.437v-7.563h5.382l4.618 9.236zm-49-21v4h2v-4h2v4h2v-4h2v4h2v-4h2v4h2v-4h2v4h2v-4h2v4h2v-4h2v4h2v-4h2v4h2v-4h2v4h2v-4h2v4h2v-4h2v4h2v-4h2v6h-46v-6zm-2.382 8h5.382v7.563l-5.438 5.437h-4.562v-3.764zm17.535 48h-20.306l-.667-4h21.64zm2.847-28a1 1 0 0 0 -1 1v21h-24v-27h4.977a1 1 0 0 0 .707-.293l6.023-6.023a1 1 0 0 0 .293-.707v-7.977h32v7.977a1 1 0 0 0 .293.707l6.023 6.023a1 1 0 0 0 .707.293h4.977v27h-24v-21a1 1 0 0 0 -1-1zm29.153 28h-20.306l-.667-4h21.64z"/><path d="m28 14h2v2h-2z"/><path d="m28 18h2v2h-2z"/><path d="m28 22h2v2h-2z"/><path d="m34 14h2v2h-2z"/><path d="m34 18h2v2h-2z"/><path d="m34 22h2v2h-2z"/></g></svg>