<svg id="Layers_1_" enable-background="new 0 0 64 64" height="512" viewBox="0 0 64 64" width="512" xmlns="http://www.w3.org/2000/svg"><path d="m44 16.715v-7.715c0-.552-.448-1-1-1h-22c-.552 0-1 .448-1 1v7.714c-.774 1.272-4 7.125-4 16.286v10c0 .552.448 1 1 1s1-.448 1-1v-10c0-8.074 2.708-13.485 3.568-15h20.865c.86 1.508 3.567 6.893 3.567 15v21h-3.191l-2.831-13.209c-.099-.461-.506-.791-.978-.791s-.879.33-.978.791l-2.831 13.209h-17.191v-5c0-.552-.448-1-1-1s-1 .448-1 1v6c0 .552.448 1 1 1h19c.472 0 .879-.33.978-.791l2.022-9.437 2.022 9.437c.099.461.506.791.978.791h5c.552 0 1-.448 1-1v-22c0-9.16-3.225-15.011-4-16.285zm-2-.715h-20v-2h17c.552 0 1-.448 1-1s-.448-1-1-1h-17v-2h20z"/><circle cx="17" cy="46" r="1"/></svg>