<svg id="Layer_5" enable-background="new 0 0 64 64" height="512" viewBox="0 0 64 64" width="512" xmlns="http://www.w3.org/2000/svg"><path d="m54.944 14.095c-.42-4.021-3.395-7.275-7.41-8.021-2.729-3.23-6.693-5.074-10.937-5.074h-8.465c-8.151 0-15.436 5.313-18 13-2.757 0-5 2.243-5 5v18c0 2.414 1.721 4.434 4 4.899v2.342c0 5.206 2.636 9.96 7.05 12.72l6.988 4.368c1.75 1.093 3.767 1.671 5.83 1.671h6.132c2.063 0 4.08-.578 5.83-1.672l6.988-4.368c4.414-2.759 7.05-7.514 7.05-12.72v-2.342c2.279-.465 4-2.484 4-4.899v-17.999c0-2.434-1.75-4.461-4.056-4.905zm2.056 4.905v5h-2v-4c0-1.103-.897-2-2-2h-2v-2h3c1.654 0 3 1.346 3 3zm-20.25 21-.829-1.658c-.06-.12-.132-.23-.202-.342h13.281v2zm-25.618-4v-4h1c1.654 0 3-1.346 3-3v-2c0-1.654-1.346-3-3-3h-1v-4h41.868v4h-1c-1.654 0-3 1.346-3 3v2c0 1.654 1.346 3 3 3h1v4zm17.412 2c-.07.112-.142.222-.202.342l-.828 1.658h-12.481l.066-2zm-16.412-12c.552 0 1 .449 1 1v2c0 .551-.448 1-1 1h-5v-4zm36.868-10v2h-34v-2zm-9-2h-16v-1c0-.551.448-1 1-1h14c.552 0 1 .449 1 1zm12 16c-.552 0-1-.449-1-1v-2c0-.551.448-1 1-1h5v4zm-23.868-27h8.465c3.764 0 7.271 1.686 9.622 4.625l.248.31.392.056c3.187.455 5.594 2.912 6.053 6.01h-10.912v-1c0-1.654-1.346-3-3-3h-14c-1.654 0-3 1.346-3 3v1h-9.761c2.473-6.54 8.824-11.001 15.893-11.001zm-18 13h2.868v2h-1.868c-1.103 0-2 .897-2 2v4h-2v-5c0-1.654 1.346-3 3-3zm-3 21v-5h2v4c0 1.103.897 2 2 2h1.967l-.066 2h-2.901c-1.654 0-3-1.346-3-3zm39.758 18.264-6.988 4.368c-1.432.895-3.082 1.368-4.77 1.368h-6.132c-1.688 0-3.338-.473-4.77-1.368l-6.988-4.368c-3.826-2.391-6.11-6.512-6.11-11.023v-2.241h17.618l1.382-2.763c.382-.763 1.147-1.237 2-1.237s1.619.474 2 1.236l1.382 2.764h17.486v2.241c0 4.511-2.284 8.633-6.11 11.023zm7.11-15.264h-3v-2h2c1.103 0 2-.897 2-2v-4h2v5c0 1.654-1.346 3-3 3z"/><path d="m45 22h2v2h-2z"/><path d="m41 22h2v2h-2z"/><path d="m37 22h2v2h-2z"/><path d="m25.132 32h2v2h-2z"/><path d="m21.132 32h2v2h-2z"/><path d="m17.132 32h2v2h-2z"/><path d="m32.132 52c-3.859 0-7-2.243-7-5h-2c0 3.86 4.037 7 9 7s9-3.14 9-7h-2c0 2.757-3.141 5-7 5z"/></svg>