<?xml version="1.0" encoding="iso-8859-1"?>
<!-- Generator: Adobe Illustrator 19.0.0, SVG Export Plug-In . SVG Version: 6.00 Build 0)  -->
<svg version="1.1" id="Capa_1" xmlns="http://www.w3.org/2000/svg" xmlns:xlink="http://www.w3.org/1999/xlink" x="0px" y="0px"
	 viewBox="0 0 512 512" style="enable-background:new 0 0 512 512;" xml:space="preserve">
<g>
	<g>
		<g>
			<path d="M273.067,200.533c35.346,0,64-28.654,64-64c0-35.346-28.654-64-64-64c-35.346,0-64,28.654-64,64
				C209.109,171.862,237.738,200.491,273.067,200.533z M273.067,89.6c25.921,0,46.933,21.013,46.933,46.933
				c0,25.921-21.013,46.933-46.933,46.933c-25.921,0-46.933-21.013-46.933-46.933C226.162,110.624,247.158,89.628,273.067,89.6z"/>
			<path d="M273.067,162.133c14.138,0,25.6-11.462,25.6-25.6s-11.462-25.6-25.6-25.6s-25.6,11.461-25.6,25.6
				S258.928,162.133,273.067,162.133z M273.067,128c4.713,0,8.533,3.82,8.533,8.533s-3.82,8.533-8.533,8.533
				s-8.533-3.82-8.533-8.533S268.354,128,273.067,128z"/>
			<path d="M349.867,426.667h-34.133v-72.713c-0.014-11.677-9.477-21.14-21.154-21.154h-71.006l-87.62-35.499l-1.22-0.384
				c-3.834-0.793-6.62-4.117-6.733-8.03v-92.621h25.6v53.589c0.014,12.813,10.398,23.197,23.211,23.211h192.512
				c12.813-0.014,23.197-10.398,23.211-23.211V23.211C392.519,10.398,382.136,0.014,369.323,0H176.811
				c-12.813,0.014-23.197,10.398-23.211,23.211v70.656H128V8.533C128,3.82,124.18,0,119.467,0s-8.533,3.82-8.533,8.533v280.354
				c0.084,11.552,7.946,21.594,19.14,24.448l83.26,33.741v79.59h-51.2c-37.685,0.042-68.224,30.582-68.267,68.267
				c0,4.526,1.798,8.867,4.999,12.068S106.407,512,110.933,512h290.133c9.426,0,17.067-7.641,17.067-17.067
				C418.091,457.248,387.552,426.709,349.867,426.667z M170.667,23.211c0.005-3.391,2.753-6.139,6.144-6.144h164.523v17.067
				c0,4.713,3.821,8.533,8.533,8.533c4.713,0,8.533-3.82,8.533-8.533V17.067h10.923c3.391,0.005,6.139,2.753,6.144,6.144v226.645
				c-0.005,3.391-2.753,6.139-6.144,6.144H204.8v-17.067c0-4.713-3.82-8.533-8.533-8.533s-8.533,3.82-8.533,8.533V256h-10.923
				c-3.391-0.005-6.139-2.753-6.144-6.144V23.211z M128,110.933h25.6V179.2H128V110.933z M230.4,349.867h64.179
				c2.255,0.005,4.083,1.832,4.087,4.087v72.713H230.4V349.867z M110.933,494.933c0.028-28.265,22.935-51.172,51.2-51.2h187.733
				c28.265,0.028,51.172,22.935,51.2,51.2H110.933z"/>
			<path d="M349.867,85.333c4.713,0,8.533-3.82,8.533-8.533v-8.533c0-4.713-3.821-8.533-8.533-8.533
				c-4.713,0-8.533,3.82-8.533,8.533V76.8C341.333,81.513,345.154,85.333,349.867,85.333z"/>
			<path d="M196.267,213.333c4.713,0,8.533-3.821,8.533-8.533v-8.533c0-4.713-3.82-8.533-8.533-8.533s-8.533,3.82-8.533,8.533v8.533
				C187.733,209.513,191.554,213.333,196.267,213.333z"/>
		</g>
	</g>
</g>
<g>
</g>
<g>
</g>
<g>
</g>
<g>
</g>
<g>
</g>
<g>
</g>
<g>
</g>
<g>
</g>
<g>
</g>
<g>
</g>
<g>
</g>
<g>
</g>
<g>
</g>
<g>
</g>
<g>
</g>
</svg>
