<?xml version="1.0" encoding="utf-8"?>
<!-- Generator: Adobe Illustrator 23.0.0, SVG Export Plug-In . SVG Version: 6.00 Build 0)  -->
<svg version="1.1" id="Layer_1" xmlns="http://www.w3.org/2000/svg" xmlns:xlink="http://www.w3.org/1999/xlink" x="0px" y="0px"
	 viewBox="0 0 301 301" style="enable-background:new 0 0 301 301;" xml:space="preserve">
<g>
	<g>
		<g>
			<circle cx="80.1" cy="70.3" r="4.9"/>
			<circle cx="166.3" cy="70.3" r="4.9"/>
			<path d="M166.7,97.5H80.1c-2.7,0-4.9,2.2-4.9,4.9v21.7c0,2.7,2.2,4.9,4.9,4.9h86.6c2.7,0,4.9-2.1,4.9-4.9v-21.7
				C171.5,99.7,169.3,97.5,166.7,97.5z M161.8,119.2H85v-12h76.8V119.2z"/>
			<path d="M296.1,140.1h-49.4c-0.8-19.6-6.4-38.9-16.4-56.2c-10.7-18.5-26.3-34.1-44.9-45.2c-0.1,0-0.1-0.1-0.1-0.1
				c-38.5-21.6-86-21.6-123.7,0c0,0-0.1,0-0.1,0.1C42.8,49.8,27.3,65.5,16.5,84C5.7,102.6,0,123.7,0,145c0,2.7,2.2,4.9,4.9,4.9h70.4
				c-0.1,0.3-0.1,0.5-0.1,0.8v16.1c0,0.5,0.1,1,0.3,1.5L86,200.4c0.1,0.5,0.3,0.8,0.6,1.2l21.8,32.2c0.2,0.3,0.5,0.6,0.8,0.9
				l47.7,42.6c0.9,0.8,2.1,1.2,3.3,1.2h103.5c1.9,0,3.6-1,4.4-2.7l21.1-42.6c0.7-1.5,0.6-3.3-0.3-4.7s-2.5-2.3-4.2-2.3H171.5v-28.9
				l-11.3-31.4v-16H220h21.8h54.2c2.7,0,4.9-2.2,4.9-4.9C301,142.3,298.7,140.1,296.1,140.1z M85,161.8v-11.2c0-0.3,0-0.5-0.1-0.8
				h65.6v12L85,161.8L85,161.8z M86.8,171.6h65.1L160,194H94.1L86.8,171.6z M161.8,268.5l-36.5-32.6h36.5V268.5z M257.3,235.9h19.6
				l-16.2,32.9h-3.4V235.9z M214.4,235.9h33.1v32.8h-33.1V235.9z M171.5,235.9h33.1v32.8h-33.1V235.9z M161.8,203.7v22.4h-46.7
				l-15.2-22.4H161.8z M220,140.1H9.9c1.7-37.7,23-73,56.5-93c34.8-20,78.5-20,114,0c33.5,20,54.8,55.3,56.5,93H220z"/>
		</g>
	</g>
</g>
<path d="M213,3h-4.8c-1.3,0-2.4,1.1-2.4,2.4v4.8c0,1.3,1.1,2.4,2.4,2.4h4.8c35.5,0,64.6,29.1,64.6,64.6v4.8c0,1.3,1.1,2.4,2.4,2.4
	h4.8c1.3,0,2.4-1.1,2.4-2.4v-4.8C287.1,36.3,253.8,3,213,3z"/>
<path d="M213.4,33.1h4c20.8,0,37.8,17.1,37.8,37.8v4c0,1.1,0.9,2,2,2h4c1.1,0,2-0.9,2-2v-4c0-25.1-20.6-45.8-45.8-45.8h-4
	c-1.1,0-2,0.9-2,2v4C211.4,32.2,212.3,33.1,213.4,33.1z"/>
<path d="M215.4,52.2h2.9c8.8,0,16.1,7.3,16.1,16.1v2.9c0,0.8,0.6,1.4,1.4,1.4h2.9c0.8,0,1.4-0.6,1.4-1.4v-2.9
	c0-12-9.9-21.8-21.8-21.8h-2.9c-0.8,0-1.4,0.6-1.4,1.4v2.9C213.9,51.5,214.6,52.2,215.4,52.2z"/>
</svg>
