<?xml version="1.0" encoding="utf-8"?>
<!-- Generator: Adobe Illustrator 23.0.0, SVG Export Plug-In . SVG Version: 6.00 Build 0)  -->
<svg version="1.1" id="Layer_1" xmlns="http://www.w3.org/2000/svg" xmlns:xlink="http://www.w3.org/1999/xlink" x="0px" y="0px"
	 viewBox="0 0 476 476" style="enable-background:new 0 0 476 476;" xml:space="preserve">
<path d="M44.4,464.1c17,16.9,44.4,16.9,61.4,0l259.7-259.7c3.1-3.1,3.1-8.2,0-11.3l-19.2-19.4l2.6-2.6V171h-0.2l25.1-24.7l24.9-25
	h-0.1l75.1-75.1c3.1-3.1,3.1-8.2,0-11.3L442,3.2c-3.1-3.1-8.2-3.1-11.3,0l-25,25v0l-25,25h0v0l-25,25h0v0l-25,25h0L303,130.8
	l-19.4-19.4c-3.1-3.1-8.2-3.1-11.3,0L12.7,371.1c-16.9,17-16.9,44.4,0,61.4L44.4,464.1z M336.2,120.2l20.4,20.4l-13.7,13.7
	L322.5,134L336.2,120.2z M361.2,95.2l20.4,20.4l-13.7,13.7l-20.4-20.4L361.2,95.2z M386.2,70.2l20.4,20.4l-13.7,13.7l-20.4-20.4
	L386.2,70.2z M411.3,45.1l20.4,20.4l-13.7,13.7l-20.4-20.4L411.3,45.1z M322.4,172.8l-62.4,44l44-62.4L322.4,172.8z M436.3,20.1
	l20.4,20.4L443,54.3l-20.4-20.4L436.3,20.1z M24,382.4l254-254l14.6,14.6l-72.2,102.4c-2.2,3.2-1.9,7.5,0.9,10.3
	c2.7,2.7,7.1,3.1,10.3,0.9l102.4-72.2l14.6,14.6l-254,254c-10.7,10.7-28.1,10.7-38.8,0L24,421.1C13.3,410.4,13.3,393.1,24,382.4z"/>
<g>
	<path d="M279,82.6l0.2,4.8c0.1,1.3,1.2,2.3,2.5,2.3l4.8-0.2c1.3-0.1,2.3-1.2,2.3-2.5l-0.2-4.8c-1.8-35.5,25.9-66,61.3-67.7l4.8-0.2
		c1.3-0.1,2.3-1.2,2.3-2.5l-0.2-4.8c-0.1-1.3-1.2-2.3-2.5-2.3l-4.8,0.2C308.6,7,277,41.9,279,82.6z"/>
	<path d="M309,80.7l-0.2-4c-1-20.8,15.2-38.6,35.9-39.6l4-0.2c1.1-0.1,2-1,1.9-2.1l-0.2-4c-0.1-1.1-1-2-2.1-1.9l-4,0.2
		c-25.1,1.2-44.7,22.8-43.5,48l0.2,4c0.1,1.1,1,2,2.1,1.9l4-0.2C308.2,82.8,309.1,81.8,309,80.7z"/>
	<path d="M328,77.8l-0.1-2.9c-0.4-8.8,6.5-16.4,15.3-16.9l2.9-0.1c0.8,0,1.4-0.7,1.3-1.5l-0.1-2.9c0-0.8-0.7-1.4-1.5-1.3l-2.9,0.1
		c-12,0.6-21.3,11-20.7,22.9l0.1,2.9c0,0.8,0.7,1.4,1.5,1.3l2.9-0.1C327.4,79.3,328,78.6,328,77.8z"/>
</g>
</svg>
