<svg id="Capa_1" enable-background="new 0 0 512 512" height="512" viewBox="0 0 512 512" width="512" xmlns="http://www.w3.org/2000/svg"><path d="m177.93 200.815c-68.916 0-124.982 56.067-124.982 124.982s56.066 124.981 124.982 124.981c68.915 0 124.981-56.066 124.981-124.981s-56.066-124.982-124.981-124.982zm94.981 124.982c0 52.373-42.608 94.981-94.981 94.981s-94.982-42.608-94.982-94.981 42.609-94.982 94.982-94.982 94.981 42.609 94.981 94.982z"/><path d="m177.93 271.726c-29.815 0-54.071 24.256-54.071 54.071 0 29.814 24.256 54.07 54.071 54.07 29.814 0 54.07-24.256 54.07-54.07 0-29.816-24.256-54.071-54.07-54.071zm0 78.141c-13.273 0-24.071-10.798-24.071-24.07 0-13.273 10.798-24.071 24.071-24.071 13.272 0 24.07 10.798 24.07 24.071 0 13.272-10.798 24.07-24.07 24.07z"/><path d="m497 426.505h-54.016c-6.257-9.548-15.686-16.837-26.787-20.341v-68.506c20.065-3.936 35.253-21.65 35.253-42.851 0-24.081-19.591-43.672-43.672-43.672h-68.365c-28.277-60.916-90.022-103.268-161.483-103.268-18.914 0-37.144 2.978-54.258 8.47v-70.333c0-42.86-34.869-77.73-77.729-77.73-8.284 0-15 6.716-15 15v202.37c-19.514 28.548-30.943 63.039-30.943 100.153 0 98.11 79.819 177.929 177.93 177.929 93.845 0 170.945-73.032 177.472-165.245h30.796v67.684c-20.226 6.384-34.934 25.319-34.934 47.628 0 27.533 22.4 49.934 49.934 49.934 26.623 0 48.443-20.944 49.857-47.221h45.945c8.284 0 15-6.716 15-15s-6.716-15.001-15-15.001zm-75.869 27.287c0 10.991-8.942 19.934-19.934 19.934s-19.934-8.942-19.934-19.934 8.942-19.934 19.934-19.934 19.934 8.943 19.934 19.934zm-95.273-127.995c0 81.568-66.36 147.929-147.929 147.929s-147.929-66.361-147.929-147.929 66.361-147.929 147.93-147.929 147.928 66.361 147.928 147.929zm-232.186-156.678c-11.767 6.353-22.738 13.994-32.729 22.732v-151.163c18.991 6.303 32.729 24.236 32.729 45.316zm327.778 125.689c0 7.539-6.133 13.673-13.672 13.673h-52.765c-.906-9.343-2.533-18.478-4.833-27.345h57.598c7.539 0 13.672 6.133 13.672 13.672z"/></svg>