<?xml version="1.0" encoding="utf-8"?>
<!-- Generator: Adobe Illustrator 23.0.0, SVG Export Plug-In . SVG Version: 6.00 Build 0)  -->
<svg version="1.1" id="Layer_1" xmlns="http://www.w3.org/2000/svg" xmlns:xlink="http://www.w3.org/1999/xlink" x="0px" y="0px"
	 viewBox="0 0 512 512" style="enable-background:new 0 0 512 512;" xml:space="preserve">
<style type="text/css">
	.st0{fill:#FFFFFF;}
</style>
<path d="M375.3,141.7c0-2.7-0.8-5.4-2.2-7.7l-33.1-54.7V31.1c0-17.2-14-31.1-31.1-31.1H203.4c-17.2,0-31.1,14-31.1,31.1v48.2
	L139.2,134c-1.4,2.3-2.2,5-2.2,7.8v228.4c0,2.7,0.8,5.4,2.2,7.8l33.1,54.7v48.2c0,17.2,14,31.1,31.1,31.1h105.6
	c17.2,0,31.1-14,31.1-31.1v-48.2l33.1-54.7c1.4-2.3,2.2-5.1,2.2-7.8L375.3,141.7C375.3,141.8,375.3,141.7,375.3,141.7
	C375.3,141.3,375.3,141.7,375.3,141.7z M316.6,413.5H195.7l-17.1-28.3h155.1L316.6,413.5z M195.7,98.5h120.9l17.1,28.3H178.6
	L195.7,98.5z M345.3,156.8V241h-37.1c-6,0-11.4,3.6-13.8,9.1l-12.3,28.4l-38.3-88.8c-5.1-11.8-22.4-11.8-27.5,0L194.2,241H167v-84.2
	H345.3z M167,355.2V271h37.1c6,0,11.4-3.6,13.8-9.1l12.3-28.4l38.3,88.8c5.1,11.8,22.4,11.8,27.5,0l22.1-51.3h27.2v84.2H167z
	 M202.2,31.1c0-0.6,0.5-1.1,1.1-1.1h105.6c0.6,0,1.1,0.5,1.1,1.1v37.4H202.2V31.1z M310.1,480.9c0,0.6-0.5,1.1-1.1,1.1H203.4
	c-0.6,0-1.1-0.5-1.1-1.1v-37.4h107.9V480.9z"/>
<rect x="167" y="156.8" class="st0" width="178.3" height="198.4"/>
<path d="M288.8,210.2c11.1,0,20-9,20-20c0-11.1-9-20-20-20c-11.1,0-20,9-20,20C268.8,201.3,277.7,210.2,288.8,210.2z"/>
<path d="M321.7,204.5c-11.5,16.1-26.9,18-43.4,8.1c-1.1-0.7-6.1-3.4-7.2-4.1c-26.6-15.8-53.2-9.6-71.1,15.4
	c-7.6,10.6,10,20.7,17.4,10.2c9.2-12.9,20.9-16.6,33.8-12.6c-6.6,11.4-12.3,22.7-20.4,38.8c-8.1,16.1-26,28.9-43.2,18.9
	c-12.4-7.2-23.6,10.6-11.2,17.8c23.5,13.7,51,5.3,65-12.5c0.5,0.3,1,0.5,1.6,0.7c11.5,4,26.5,14.6,31.1,18.4
	c4.6,3.8,12.5,23,17.1,32.6c5.7,11.7,24,3.2,18.3-8.6c-5.3-11-14.2-32.8-21.1-38.3c-5.6-4.4-16.4-12.7-25.5-17.4
	c6.2-12,12.7-23.9,19.4-35.6c21.7,6.6,42.2-1.2,56.9-21.7C346.7,204,329.2,194,321.7,204.5z"/>
</svg>
