<?xml version="1.0" encoding="utf-8"?>
<!-- Generator: Adobe Illustrator 23.0.0, SVG Export Plug-In . SVG Version: 6.00 Build 0)  -->
<svg version="1.1" id="Layer_1" xmlns="http://www.w3.org/2000/svg" xmlns:xlink="http://www.w3.org/1999/xlink" x="0px" y="0px"
	 viewBox="0 0 512 512" style="enable-background:new 0 0 512 512;" xml:space="preserve">
<title>Mobile Phone</title>
<path d="M176,477h160c25.4,0,46-20.6,46-46V81c0-25.4-20.6-46-46-46H176c-25.4,0-46,20.6-46,46v350C130,456.4,150.6,477,176,477z
	 M176,47h160c18.8,0,34,15.2,34,34v14h-14c-3.3,0-6,2.7-6,6s2.7,6,6,6h14v286H142V107h163c3.3,0,6-2.7,6-6s-2.7-6-6-6H142V81
	C142,62.2,157.2,47,176,47z M142,405h228v26c0,18.8-15.2,34-34,34H176c-18.8,0-34-15.2-34-34V405z"/>
<path d="M324.7,107h11.1c3.3,0,6-2.7,6-6s-2.7-6-6-6h-11.1c-3.3,0-6,2.7-6,6S321.4,107,324.7,107z"/>
<path d="M256,456c11.6,0,21-9.4,21-21s-9.4-21-21-21c-11.6,0-21,9.4-21,21C235,446.6,244.4,456,256,456z M256,426c5,0,9,4,9,9
	s-4,9-9,9c-5,0-9-4-9-9C247,430,251,426,256,426z"/>
<g>
	<circle cx="252.5" cy="163.5" r="23"/>
	<path d="M340.9,306.7c-34.1-42.7-31.6-39.8-33.2-41.1l-15.8-64.1l45.2-61.4c3.6-4.9,2.6-11.9-2.4-15.5c-4.9-3.6-11.9-2.6-15.5,2.4
		L273.6,189c-0.6,0.1-27.9,6.8-29.5,7.4l-56-57c-4.3-4.4-11.3-4.4-15.7-0.1s-4.4,11.3-0.1,15.7l63.7,64.8l8.4,34l0,0l9.3,37.6
		l-5.1,18.2l-44.8-7.9c-7.2-1.3-14.1,3.5-15.4,10.8c-1.3,7.2,3.5,14.1,10.8,15.4c61.1,10.8,57.3,10.2,59,10.2
		c5.9,0,11.2-3.9,12.8-9.7c12.7-45,11.9-41.9,12.1-43.6l5.5-1.3c0.6,0.8-1.7-2.1,24.9,31.3l-33.4,38.8c-4.8,5.6-4.2,14,1.4,18.8
		c5.6,4.8,14,4.2,18.8-1.4l40.6-47.2C344.8,318.8,344.9,311.7,340.9,306.7z"/>
</g>
</svg>
