<svg height="512" viewBox="0 0 64 64" width="512" xmlns="http://www.w3.org/2000/svg"><path d="m15 21v22a1 1 0 0 0 1 1h20a1 1 0 0 0 1-1v-22a1 1 0 0 0 -1-1h-20a1 1 0 0 0 -1 1zm2 1h18v20h-18z"/><path d="m35 2h-18a1 1 0 0 0 -1 1v13h-2a3 3 0 0 0 -3 3v1h-3a1 1 0 0 0 -1 1v6a1 1 0 0 0 1 1h3v17a3 3 0 0 0 3 3h2v13a1 1 0 0 0 1 1h18a1 1 0 0 0 1-1v-13h2a3 3 0 0 0 3-3v-26a3 3 0 0 0 -3-3h-2v-13a1 1 0 0 0 -1-1zm-17 2h16v12h-16zm-9 22v-4h2v4zm25 34h-16v-12h16zm5-41v26a1 1 0 0 1 -1 1h-24a1 1 0 0 1 -1-1v-26a1 1 0 0 1 1-1h24a1 1 0 0 1 1 1z"/><path d="m20 6h4v2h-4z"/><path d="m20 10h4v2h-4z"/><path d="m28 6h4v2h-4z"/><path d="m28 10h4v2h-4z"/><path d="m20 52h4v2h-4z"/><path d="m20 56h4v2h-4z"/><path d="m28 52h4v2h-4z"/><path d="m28 56h4v2h-4z"/><path d="m32 29a1 1 0 0 0 -.485-.857l-5-3a1 1 0 0 0 -1.515.857v3.238l-3.231-3.878a1 1 0 0 0 -1.538 1.28l4.469 5.36-4.467 5.36a1 1 0 0 0 1.538 1.28l3.229-3.878v3.238a1 1 0 0 0 1.515.857l5-3a1 1 0 0 0 0-1.714l-3.571-2.143 3.571-2.143a1 1 0 0 0 .485-.857zm-5 7.234v-2.468l2.057 1.234zm0-6v-2.468l2.057 1.234z"/><path d="m39 13c.2 0 5 .068 5 6h2c0-7.909-6.93-8-7-8z"/><path d="m39 9c.367 0 9 .114 9 10h2c0-11.863-10.89-12-11-12z"/><path d="m52 19h2c0-15.817-14.85-16-15-16v2c.531 0 13 .159 13 14z"/></svg>