<?xml version="1.0" encoding="iso-8859-1"?>
<!-- Generator: Adobe Illustrator 19.0.0, SVG Export Plug-In . SVG Version: 6.00 Build 0)  -->
<svg version="1.1" id="Capa_1" xmlns="http://www.w3.org/2000/svg" xmlns:xlink="http://www.w3.org/1999/xlink" x="0px" y="0px"
	 viewBox="0 0 511.998 511.998" style="enable-background:new 0 0 511.998 511.998;" xml:space="preserve">
<g>
	<g>
		<path d="M103.692,128.258c-4.142,0-7.5,3.358-7.5,7.5v16.035c0,4.142,3.358,7.5,7.5,7.5c4.142,0,7.5-3.358,7.5-7.5v-16.035
			C111.192,131.616,107.834,128.258,103.692,128.258z"/>
	</g>
</g>
<g>
	<g>
		<path d="M448.558,42.37L367.561,9.018c-8.788-3.619-17.872-6.151-27.156-7.594C335.124,0.5,327.195,0,321.976,0H190.022
			c-15.717,0-31.054,3.034-45.585,9.018L63.44,42.37c-23.93,9.853-39.393,32.942-39.393,58.821v289.672
			c0,9.426,5.598,17.916,14.262,21.629l57.883,24.807v51.167c0,12.976,10.557,23.532,23.532,23.532h272.549
			c12.976,0,23.532-10.557,23.532-23.532v-51.167l57.883-24.807c8.664-3.713,14.262-12.204,14.262-21.629V101.191
			C487.951,75.312,472.488,52.223,448.558,42.37z M190.022,15h131.953c1.727,0,3.448,0.042,5.163,0.126
			c-22.181,51.281-56.867,72.4-71.132,79.212c-14.254-6.81-48.966-27.941-71.145-79.212C186.577,15.042,188.297,15,190.022,15z
			 M169.383,17.047c25.133,61.625,66.641,85.094,83.66,92.417c0.946,0.407,1.955,0.61,2.964,0.61c1.008,0,2.017-0.203,2.963-0.61
			c7.653-3.291,22.953-11.12,39.428-26.575c18.673-17.516,33.524-39.648,44.215-65.843c5.595,1.125,11.098,2.712,16.482,4.756
			c-33.804,84.65-97.816,105.224-100.602,106.081c-1.604,0.498-3.362,0.504-5.005-0.006c-2.77-0.852-66.777-21.42-100.583-106.075
			C158.287,19.759,163.789,18.172,169.383,17.047z M96.193,420.981h-0.001l-51.973-22.275c-3.142-1.346-5.171-4.425-5.171-7.842
			v-13.626l57.145,24.491V420.981z M472.951,390.864c0,3.417-2.03,6.496-5.171,7.842l-51.974,22.275v-19.252l57.145-24.491V390.864z
			 M472.951,360.918l-57.145,24.491V135.758c0-4.142-3.358-7.5-7.5-7.5c-4.142,0-7.5,3.358-7.5,7.5v329.177H384.26
			c-4.142,0-7.5,3.358-7.5,7.5c0,4.142,3.358,7.5,7.5,7.5h16.546v8.532c0,4.705-3.828,8.532-8.532,8.532H119.725
			c-4.705,0-8.532-3.828-8.532-8.532v-8.532h241.002c4.142,0,7.5-3.358,7.5-7.5c0-4.142-3.358-7.5-7.5-7.5H111.192V319.613H225.31
			c2.279,0,4.421,0.888,6.033,2.499l27.634,27.635c-1.573,3.154-2.462,6.706-2.462,10.463c0,12.976,10.557,23.532,23.532,23.532
			c12.975,0,23.532-10.557,23.532-23.532c0-12.975-10.557-23.532-23.532-23.532c-3.757,0-7.309,0.89-10.463,2.463l-27.635-27.635
			c-4.445-4.444-10.354-6.892-16.639-6.892H111.192V287.55h210.684c3.139,9.308,11.946,16.032,22.3,16.032
			c12.976,0,23.532-10.557,23.532-23.532c0-12.975-10.557-23.532-23.532-23.532c-10.353,0-19.16,6.724-22.3,16.032H111.192v-17.064
			H225.31c6.286,0,12.195-2.448,16.64-6.893l27.634-27.635c3.154,1.573,6.706,2.463,10.463,2.463
			c12.976,0,23.532-10.557,23.532-23.532c0-12.975-10.557-23.532-23.532-23.532c-12.975,0-23.532,10.557-23.532,23.532
			c0,3.757,0.89,7.309,2.462,10.463l-27.634,27.635c-1.612,1.611-3.754,2.499-6.033,2.499H111.192v-56.628
			c0-4.142-3.358-7.5-7.5-7.5c-4.142,0-7.5,3.358-7.5,7.5v201.553L39.047,360.92V101.191c0-19.777,11.816-37.421,30.104-44.951
			l69.867-28.769c36.475,91.162,107.007,113.804,110.041,114.737c2.243,0.697,4.578,1.05,6.94,1.05s4.697-0.353,6.921-1.044
			c3.051-0.938,73.587-23.587,110.06-114.743l69.867,28.769c18.287,7.53,30.104,25.174,30.104,44.951V360.918z M271.515,360.209
			c0-4.705,3.828-8.532,8.532-8.532c4.704,0,8.532,3.828,8.532,8.532c0,4.704-3.828,8.532-8.532,8.532
			C275.343,368.741,271.515,364.914,271.515,360.209z M335.644,280.048c0-4.705,3.828-8.532,8.532-8.532
			c4.704,0,8.532,3.828,8.532,8.532c0,4.704-3.828,8.532-8.532,8.532C339.472,288.58,335.644,284.753,335.644,280.048z
			 M271.515,199.887c0-4.705,3.828-8.532,8.532-8.532c4.704,0,8.532,3.828,8.532,8.532c0,4.704-3.828,8.532-8.532,8.532
			C275.343,208.419,271.515,204.592,271.515,199.887z"/>
	</g>
</g>
<g>
</g>
<g>
</g>
<g>
</g>
<g>
</g>
<g>
</g>
<g>
</g>
<g>
</g>
<g>
</g>
<g>
</g>
<g>
</g>
<g>
</g>
<g>
</g>
<g>
</g>
<g>
</g>
<g>
</g>
</svg>
