<svg height="480pt" viewBox="-66 0 480 480" width="480pt" xmlns="http://www.w3.org/2000/svg"><path d="m328.847656 224.800781-15.917968-1.601562c-.617188 6.144531-.929688 11.792969-.929688 16.800781 0 37.753906 17.351562 95.238281 20.800781 106.398438l15.269531-4.796876c-9.238281-29.691406-20.070312-74.121093-20.070312-101.601562 0-4.480469.289062-9.601562.847656-15.199219zm0 0"/><path d="m16 88c0-22.992188 11.558594-49.824219 21.265625-68.28125l-14.152344-7.4375c-10.554687 20.046875-23.113281 49.472656-23.113281 75.71875 1.449219 23.640625 5.160156 47.085938 11.089844 70.015625l15.636718-3.375c-5.636718-21.832031-9.230468-44.140625-10.726562-66.640625zm0 0"/><path d="m13.601562 169.664062c.878907 4.089844 1.734376 8.214844 2.574219 12.351563l15.679688-3.199219c-.847657-4.183594-1.71875-8.359375-2.597657-12.496094zm0 0"/><path d="m296 240c1.699219-29.941406 6.253906-59.652344 13.601562-88.726562 5.359376-20.738282 8.839844-41.914063 10.398438-63.273438 0-34.03125-32-82.398438-33.34375-84.441406-1.484375-2.222656-3.980469-3.558594-6.65625-3.558594h-56c-2.351562 0-4.582031 1.035156-6.101562 2.828125-1.519532 1.792969-2.171876 4.164063-1.785157 6.484375l5.488281 32.863281c2.980469 18.082031-5 36.214844-20.347656 46.226563-15.347656 10.011718-35.160156 10.011718-50.507812 0-15.347656-10.011719-23.328125-28.144532-20.347656-46.226563l5.472656-32.863281c.386718-2.316406-.265625-4.683594-1.78125-6.476562-1.515625-1.792969-3.742188-2.83203175-6.089844-2.835938h-56c-2.675781 0-5.171875 1.335938-6.65625 3.558594-1.34375 2.042968-33.34375 50.410156-33.34375 84.441406 1.558594 21.359375 5.039062 42.535156 10.398438 63.273438 7.347656 29.074218 11.902343 58.785156 13.601562 88.726562 0 46.128906-23.351562 116.800781-23.585938 117.472656-1.214843 3.652344.34375 7.648438 3.707032 9.519532 42.015625 24.410156 74.542968 62.3125 92.292968 107.542968 1.09375 3.261719 4.144532 5.464844 7.585938 5.464844h80c3.441406 0 6.492188-2.203125 7.585938-5.464844 17.75-45.230468 50.277343-83.132812 92.292968-107.542968 3.363282-1.871094 4.921875-5.867188 3.707032-9.519532-.234376-.671875-23.585938-71.304687-23.585938-117.472656zm8-152c-.917969 14.992188-3.164062 29.875-6.710938 44.472656l-33.976562-116.472656h12.304688c7.101562 11.390625 28.382812 47.558594 28.382812 72zm-227.617188-72h12.304688l-33.976562 116.472656c-3.546876-14.597656-5.792969-29.480468-6.710938-44.472656 0-24.441406 21.28125-60.609375 28.382812-72zm134.082032 448h-68.929688c-18.53125-44.691406-50.707031-82.386719-91.933594-107.703125 5.855469-18.777344 22.398438-75.328125 22.398438-116.296875-1.011719-25.109375-4.445312-50.0625-10.246094-74.511719l43.605469-149.488281h13.191406l-3.917969 23.550781c-4.0625 24.359375 6.664063 48.816407 27.339844 62.324219 20.675782 13.507812 47.378906 13.507812 68.054688 0 20.675781-13.507812 31.402344-37.964844 27.339844-62.324219l-3.917969-23.550781h13.191406l43.605469 149.488281c-5.800782 24.449219-9.234375 49.402344-10.246094 74.511719 0 40.96875 16.542969 97.519531 22.398438 116.296875-41.226563 25.316406-73.402344 63.011719-91.933594 107.703125zm0 0"/><path d="m264 336h16v16h-16zm0 0"/></svg>