<svg id="Layer_3" enable-background="new 0 0 64 64" height="512" viewBox="0 0 64 64" width="512" xmlns="http://www.w3.org/2000/svg"><path d="m59 19h-2v-7c0-1.654-1.346-3-3-3h-14v-2h-1.08c-.488-3.386-3.401-6-6.92-6s-6.432 2.614-6.92 6h-1.08v2h-14c-1.654 0-3 1.346-3 3v7h-2v12h2v5c0 1.654 1.346 3 3 3s3-1.346 3-3v-5h2v-12h-2v-4h11v8h-.883l-2.066 16.529c-1.217.686-2.051 1.976-2.051 3.471 0 .857.276 1.648.737 2.299-3.868 1.008-6.737 4.521-6.737 8.701v9h38v-9c0-4.18-2.869-7.693-6.737-8.701.461-.651.737-1.442.737-2.299 0-1.495-.834-2.785-2.051-3.471l-2.066-16.529h-.883v-8h11v4h-2v12h2v5c0 1.654 1.346 3 3 3s3-1.346 3-3v-5h2zm-27-16c2.414 0 4.434 1.721 4.899 4h-9.798c.465-2.279 2.485-4 4.899-4zm7.117 22 1.75 14h-17.734l1.75-14zm-5.117-6h-4v-2h4zm0-4h-4v-2h4zm-4 8v-2h4v2zm4-12h-4v-2h4zm-23 25c0 .552-.449 1-1 1s-1-.448-1-1v-5h2zm2-7h-6v-8h6zm-2-16v6h-2v-7c0-.552.449-1 1-1h14v2zm15-4h2v14h-2zm23 45v7h-34v-7c0-3.859 3.14-7 7-7h7v6h-5v6h16v-6h-5v-6h7c3.86 0 7 3.141 7 7zm-11 1v2h-12v-2zm-7-2v-6h2v6zm10-8h-18c-1.103 0-2-.897-2-2s.897-2 2-2h18c1.103 0 2 .897 2 2s-.897 2-2 2zm-5-22v-14h2v14zm4-10v-2h14c.551 0 1 .448 1 1v7h-2v-6zm15 23c0 .552-.449 1-1 1s-1-.448-1-1v-5h2zm2-7h-6v-8h6z"/><path d="m42 57h2v2h-2z"/><path d="m20 57h2v2h-2z"/></svg>