<?xml version="1.0" encoding="utf-8"?>
<!-- Generator: Adobe Illustrator 23.0.0, SVG Export Plug-In . SVG Version: 6.00 Build 0)  -->
<svg version="1.1" id="Layer_1" xmlns="http://www.w3.org/2000/svg" xmlns:xlink="http://www.w3.org/1999/xlink" x="0px" y="0px"
	 viewBox="0 0 512 512" style="enable-background:new 0 0 512 512;" xml:space="preserve">
<path d="M503.8,296.9L465,258.2c-10.3-10.3-23.9-15.9-38.4-15.9h-58.6c-0.1-19.4-0.2-36.9-0.2-47.1c0,0,44.9,16.6,58.5-21.6l10-25.8
	c3.9-10.2,3.5-21.6-1.3-31.5c-4.7-9.8-13.4-17.3-23.8-20.6l-71.4-22.3c-0.5-4.2-2-8.2-4.5-11.7c-8.2-11.6-24.3-14.5-35.9-6.3
	c-25.9,18.2-60.7,18.2-86.7,0c-11.6-8.2-27.8-5.4-35.9,6.3c-2.5,3.5-4,7.6-4.5,11.7l-28,8.8c-3.9,1.2-6.2,5.4-4.9,9.4
	c1,3.2,4.9,5.9,9.4,4.9l26.2-8.2c1.9,3.7,4.6,6.9,8.1,9.3c21.4,15.1,46.7,23,73,23c26.3,0,51.6-8,73-23c3.5-2.4,6.2-5.6,8.1-9.3
	l69.6,21.8c6.6,2.1,11.8,6.6,14.8,12.8c3,6.2,3.3,13.1,0.8,19.5l-10,25.8c-4.4,11.3-16.2,17.7-28,15.2l-22.5-4.8
	c-4.3-0.6-8.9,0.8-9.1,7.4c0,0.3,0.2,26.1,0.3,56.3H158.9c0.1-30.2,0.3-56.1,0.3-56.3c0-5.8-3.5-8.5-9.1-7.4l-22.5,4.8
	c-11.9,2.5-23.6-3.9-28-15.2l-10-25.8c-2.5-6.4-2.2-13.3,0.8-19.5c3-6.2,8.2-10.7,14.8-12.8l12.9-4c4-1.2,6.2-5.4,4.9-9.4
	s-5.4-6.2-9.4-4.9l-12.9,4C90.4,99,81.7,106.5,77,116.3c-4.7,9.8-5.2,21.3-1.3,31.5l10,25.8c16.1,40.3,58.5,21.6,58.5,21.6
	l-0.2,47.1H85.4c-14.5,0-28.1,5.6-38.4,15.9L8.2,296.9c-8.1,8.1-10.4,19.7-6,30.3s14.2,17.2,25.7,17.2h30.6v86.5
	c0,25.3,20.6,45.8,45.8,45.8h303.3c25.3,0,45.8-20.6,45.8-45.8v-87.1c2.8,0.4,5.7,0.7,8.7,0.7h22c11.5,0,21.3-6.6,25.7-17.2
	S511.9,305.1,503.8,296.9z M320.4,85.3c-18.9,13.3-41.2,20.3-64.4,20.3s-45.5-7-64.4-20.3c-4.9-3.4-6.1-10.2-2.6-15.1
	c4.8-6.7,13.2-3.9,15.1-2.6c31.1,21.8,72.8,21.8,103.9,0c4.9-3.4,11.5-2.2,15.1,2.6C327.9,76.9,322.7,83.6,320.4,85.3z M16,321.5
	c-2.1-5-1-10.2,2.8-14l38.8-38.8c7.4-7.4,17.3-11.5,27.8-11.5h251.4l-60.2,60.2c-7.7,7.7-18,12-29,12H27.9
	C22.5,329.4,18.1,326.5,16,321.5z M104.3,461.7c-17,0-30.8-13.8-30.8-30.8v-86.5h174.2c14.9,0,29-5.8,39.6-16.4l60.2-60.2v193.8
	H104.3z M496,321.5c-2.1,4.9-6.5,7.9-11.8,7.9h-22c-10.9,0-21.2-4.3-29-12l-11.3-11.3c-2.9-2.9-7.7-2.9-10.6,0
	c-2.9,2.9-2.9,7.7,0,10.6l11.3,11.3c4.7,4.7,10.1,8.4,15.9,11.2v91.7c0,17-13.8,30.8-30.8,30.8h-45.2V267.9l27.8,27.8
	c2.9,2.9,7.7,2.9,10.6,0c2.9-2.9,2.9-7.7,0-10.6L373,257.3h53.6c10.5,0,20.4,4.1,27.8,11.5l38.8,38.8C497,311.3,498,316.6,496,321.5
	z"/>
<path d="M36.2,86.6l5,2.8c3.8,2.1,6.8,5.1,8.9,8.9l2.8,5c2.6,4.8,7.6,7.8,13.1,7.8c5.5,0,10.5-3,13.1-7.8l2.8-5
	c2.1-3.8,5.1-6.9,8.9-8.9l5-2.8c4.8-2.6,7.8-7.6,7.8-13.1c0-5.5-3-10.5-7.8-13.1l-5-2.8c-3.8-2.1-6.8-5.1-8.9-8.9l-2.8-5
	C76.5,39,71.5,36,66,36s-10.5,3-13.1,7.8l-2.8,5c-2.1,3.8-5.1,6.9-8.9,8.9l-5,2.8c-4.8,2.6-7.8,7.6-7.8,13.1
	C28.4,79,31.4,84,36.2,86.6z M66,51.1c0,0,4.6,16.3,22.5,22.5c0,0-15.5,6.8-22.5,22.5c0,0-7-16-22.5-22.5C43.5,73.6,60.9,67,66,51.1
	z"/>
<path d="M434.3,187.5l-2.2,4c-1.5,2.7-3.7,4.9-6.4,6.4l-4,2.2c-4.3,2.3-6.9,6.8-6.9,11.7s2.7,9.4,6.9,11.7l4,2.2
	c2.7,1.5,4.9,3.7,6.4,6.4l2.2,4c2.3,4.3,6.8,6.9,11.7,6.9s9.4-2.7,11.7-6.9l2.2-4c1.5-2.7,3.7-4.9,6.4-6.4l4-2.2
	c4.3-2.3,6.9-6.8,6.9-11.7s-2.7-9.4-6.9-11.7l-4-2.2c-2.7-1.5-4.9-3.7-6.4-6.4l-2.2-4c-2.3-4.3-6.8-6.9-11.7-6.9
	S436.6,183.3,434.3,187.5z M446,197.4c2,9.9,14.4,14.4,14.4,14.4c-9.2,4.4-14.4,14.4-14.4,14.4c-3.1-9.1-14.4-14.4-14.4-14.4
	C442,208.4,446,197.4,446,197.4z"/>
</svg>
