<?xml version="1.0" encoding="iso-8859-1"?>
<!-- Generator: Adobe Illustrator 19.0.0, SVG Export Plug-In . SVG Version: 6.00 Build 0)  -->
<svg version="1.1" id="Capa_1" xmlns="http://www.w3.org/2000/svg" xmlns:xlink="http://www.w3.org/1999/xlink" x="0px" y="0px"
	 viewBox="0 0 512 512" style="enable-background:new 0 0 512 512;" xml:space="preserve">
<g>
	<g>
		<path d="M454.802,0H289.135c-13.27,0-24.065,10.796-24.065,24.066v9.067h-76.121V15.782c0-4.142-3.358-7.5-7.5-7.5h-66.265
			c-4.142,0-7.5,3.358-7.5,7.5v17.351H82.05c-13.27,0-24.066,10.796-24.066,24.066v125.036H40.633c-4.142,0-7.5,3.358-7.5,7.5
			v49.699c0,4.142,3.358,7.5,7.5,7.5h17.351V305.7c0,13.27,10.796,24.066,24.066,24.066h141.602v34.699h-26.418v-9.067
			c0-4.142-3.358-7.5-7.5-7.5h-30.026l-14.369-14.369c-1.407-1.407-3.314-2.197-5.303-2.197h-16.566c-4.142,0-7.5,3.358-7.5,7.5
			v66.267c0,4.142,3.358,7.5,7.5,7.5h16.566c1.989,0,3.896-0.79,5.303-2.197l14.372-14.372h30.023c4.142,0,7.5-3.358,7.5-7.5v-9.066
			h26.418v18.132h-25.634c-4.142,0-7.5,3.358-7.5,7.5v41.396c0,0.007-0.001,0.013-0.001,0.019c0,0.006,0.001,0.013,0.001,0.019
			v17.336h-25.633c-4.142,0-7.5,3.358-7.5,7.5V497h-9.067c-4.142,0-7.5,3.358-7.5,7.5c0,4.142,3.358,7.5,7.5,7.5h16.567h182.232
			h16.567c4.143,0,7.5-3.358,7.5-7.5c0-4.142-3.357-7.5-7.5-7.5h-9.067v-25.632c0-4.142-3.357-7.5-7.5-7.5h-25.633v-58.771
			c0-4.142-3.357-7.5-7.5-7.5H288.35v-18.132h17.35c4.143,0,7.5-3.358,7.5-7.5c0-4.142-3.357-7.5-7.5-7.5h-17.349v-34.699h81.775
			c4.143,0,7.5-3.358,7.5-7.5c0-4.142-3.357-7.5-7.5-7.5H82.05c-4.999,0-9.066-4.067-9.066-9.066V57.199
			c0-4.999,4.067-9.066,9.066-9.066h183.02v141.6c0,13.271,10.796,24.066,24.065,24.066l158.166-0.001V305.7
			c0,4.999-4.066,9.066-9.065,9.066h-38.14c-4.143,0-7.5,3.358-7.5,7.5c0,4.142,3.357,7.5,7.5,7.5h38.14
			c13.269,0,24.065-10.796,24.065-24.066v-93.103c9.608-3.159,16.567-12.212,16.567-22.863V24.066
			C478.869,10.796,468.073,0,454.802,0z M57.984,231.933h-9.851v-34.699h9.851V231.933z M149.101,385.427l-12.172,12.172h-5.96
			v-51.267h5.96l12.172,12.172V385.427z M182.234,381.031h-0.001h-18.132v-18.133h18.133V381.031z M205.518,412.597h18.134v25.635
			v0.781h-18.134V412.597z M205.518,454.012h18.134v9.855h-18.134V454.012z M288.352,438.231v-25.635h18.133v26.415h-18.133V438.231
			z M288.352,454.012h18.133v9.855h-18.133V454.012z M238.652,405.097v-75.331h34.7v75.331v25.635h-34.7V405.097z M238.652,445.731
			h34.7v0.761c0,0.007-0.001,0.013-0.001,0.019c0,0.006,0.001,0.013,0.001,0.019v17.336h-34.7V445.731z M280.852,478.868h33.133
			h25.633V497H172.385v-18.132h25.633h33.134H280.852z M173.949,33.133h-51.265v-9.851h51.265V33.133z M454.803,198.799h-0.002
			L289.134,198.8c-4.999,0-9.065-4.067-9.065-9.066V24.066c0-4.999,4.066-9.066,9.065-9.066h165.667
			c4.999,0,9.066,4.067,9.066,9.066v165.667h0.001C463.869,194.732,459.802,198.799,454.803,198.799z"/>
	</g>
</g>
<g>
	<g>
		<path d="M371.968,24.849c-45.242,0-82.049,36.807-82.049,82.049s36.807,82.049,82.049,82.049s82.05-36.807,82.05-82.049
			S417.211,24.849,371.968,24.849z M371.968,173.947c-36.971,0-67.049-30.078-67.049-67.049s30.078-67.049,67.049-67.049
			c36.972,0,67.05,30.078,67.05,67.049S408.94,173.947,371.968,173.947z"/>
	</g>
</g>
<g>
	<g>
		<path d="M371.968,49.699c-31.54,0-57.199,25.66-57.199,57.199c0,31.54,25.659,57.199,57.199,57.199
			c31.54,0,57.199-25.66,57.199-57.199C429.168,75.358,403.508,49.699,371.968,49.699z M371.968,149.097
			c-23.269,0-42.199-18.931-42.199-42.199c0-23.269,18.931-42.199,42.199-42.199c23.269,0,42.199,18.931,42.199,42.199
			C414.168,130.167,395.237,149.097,371.968,149.097z"/>
	</g>
</g>
<g>
	<g>
		<path d="M371.968,248.499c-13.271,0-24.067,10.796-24.067,24.067s10.797,24.067,24.067,24.067
			c13.27,0,24.067-10.796,24.067-24.067C396.036,259.295,385.239,248.499,371.968,248.499z M371.968,281.633
			c-5,0-9.067-4.067-9.067-9.067s4.067-9.067,9.067-9.067s9.067,4.067,9.067,9.067C381.036,277.565,376.968,281.633,371.968,281.633
			z"/>
	</g>
</g>
<g>
	<g>
		<path d="M189.734,82.832h-82.833c-4.142,0-7.5,3.358-7.5,7.5v82.834c0,4.142,3.358,7.5,7.5,7.5h82.833c4.142,0,7.5-3.358,7.5-7.5
			V90.332C197.234,86.19,193.876,82.832,189.734,82.832z M124.251,165.666h-9.851V97.832h9.851V165.666z M182.234,165.666h-42.982
			V97.832h42.982V165.666z"/>
	</g>
</g>
<g>
	<g>
		<path d="M206.3,231.933h-99.4c-4.142,0-7.5,3.358-7.5,7.5v33.133c0,4.142,3.358,7.5,7.5,7.5h99.4c4.142,0,7.5-3.358,7.5-7.5
			v-33.133C213.8,235.291,210.443,231.933,206.3,231.933z M198.8,265.066h-84.4v-18.133h84.4V265.066z"/>
	</g>
</g>
<g>
	<g>
		<path d="M156.602,198.799h-49.701c-4.142,0-7.5,3.358-7.5,7.5c0,4.142,3.358,7.5,7.5,7.5h49.701c4.142,0,7.5-3.358,7.5-7.5
			C164.102,202.157,160.743,198.799,156.602,198.799z"/>
	</g>
</g>
<g>
</g>
<g>
</g>
<g>
</g>
<g>
</g>
<g>
</g>
<g>
</g>
<g>
</g>
<g>
</g>
<g>
</g>
<g>
</g>
<g>
</g>
<g>
</g>
<g>
</g>
<g>
</g>
<g>
</g>
</svg>
