<svg height="512pt" viewBox="-84 0 512 512.00215" width="512pt" xmlns="http://www.w3.org/2000/svg"><path d="m344.445312 244.890625c0-33.941406-17.050781-63.96875-43.027343-81.984375v-13.585938c.054687-.03125.113281-.0625.167969-.09375l37.792968-21.292968c2.328125-1.3125 3.785156-3.761719 3.820313-6.433594.035156-2.671875-1.355469-5.164062-3.648438-6.535156l-41.78125-25.019532c-2.316406-1.386718-5.203125-1.421874-7.550781-.089843-2.351562 1.332031-3.804688 3.824219-3.804688 6.527343v57.9375c-12.6875-5.867187-26.808593-9.144531-41.683593-9.144531h-10.046875v-31.039062c.054687-.03125.113281-.0625.167968-.09375l37.792969-21.292969c2.328125-1.3125 3.785157-3.765625 3.820313-6.4375s-1.355469-5.160156-3.648438-6.535156l-41.78125-25.015625c-2.316406-1.386719-5.203125-1.421875-7.550781-.089844-2.351563 1.332031-3.804687 3.824219-3.804687 6.523437v83.980469h-40.457032v-84.738281c.058594-.03125.117188-.0625.171875-.09375l37.792969-21.289062c2.328125-1.3125 3.785156-3.765626 3.820312-6.4375.035157-2.671876-1.355468-5.160157-3.648437-6.535157l-41.785156-25.015625c-2.316407-1.390625-5.199219-1.421875-7.550781-.089844-2.351563 1.332032-3.804688 3.824219-3.804688 6.523438v137.675781h-59.082031v-28.667969c.058593-.03125.113281-.0625.171875-.09375l37.792968-21.292968c2.328126-1.3125 3.78125-3.761719 3.816407-6.433594.035156-2.671875-1.351563-5.164062-3.644531-6.535156l-41.78125-25.019532c-2.320313-1.386718-5.203126-1.421874-7.554688-.089843-2.347656 1.332031-3.800781 3.824219-3.800781 6.527343v82.066407c-23.261719 2.230469-44.210938 12.480469-60.046875 27.949219v-31.558594c.054687-.027344.113281-.0625.167968-.09375l37.792969-21.289063c2.332031-1.3125 3.785157-3.765625 3.820313-6.4375s-1.355469-5.160156-3.648438-6.535156l-41.78125-25.015625c-2.316406-1.390625-5.199218-1.421875-7.550781-.089844-2.351563 1.332032-3.804687 3.824219-3.804687 6.523438v103.128906c-9.554688 15.292969-15.085938 33.347656-15.085938 52.671875v.039063 111.804687c0 44.195313 28.90625 81.761719 68.800781 94.804687v19.949219c-7.375 2.34375-12.730469 9.25-12.730469 17.386719v15.625c0 4.144531 3.355469 7.503906 7.5 7.503906h217.308594c4.140625 0 7.5-3.359375 7.5-7.503906v-15.625c0-8.136719-5.359375-15.042969-12.730468-17.386719v-19.949219c39.894531-13.042968 68.796874-50.609374 68.796874-94.804687v-111.804687c0-.011719 0-.027344 0-.039063zm-43.027343-135.273437 19.347656 11.585937-19.347656 10.902344zm-66.738281-35.183594 19.351562 11.585937-19.351562 10.902344zm-55.457032-53.699219 19.351563 11.585937-19.351563 10.902344zm-74.085937 56.070313 19.351562 11.585937-19.351562 10.898437zm-75.050781 25.519531 19.351562 11.585937-19.351562 10.902344zm69.628906 57.851562h145.015625c46.707031 0 84.707031 38 84.710937 84.707031v.007813.019531c-.007812 46.699219-38.007812 84.691406-84.710937 84.691406h-145.015625c-46.707032 0-84.703125-37.992187-84.714844-84.691406v-.019531c0-.003906 0-.003906 0-.007813.003906-46.707031 38.003906-84.707031 84.714844-84.707031zm107.171875 310.457031h-14.980469v-13.960937c0-4.128906 3.359375-7.488281 7.488281-7.488281 4.128907 0 7.492188 3.359375 7.492188 7.488281zm-7.492188-36.453124c-12.402343 0-22.492187 10.089843-22.492187 22.492187v13.960937h-9.363282v-13.960937c0-12.402344-10.089843-22.492187-22.492187-22.492187s-22.492187 10.089843-22.492187 22.492187v13.960937h-5.164063v-88.433593c0-.777344.632813-1.410157 1.410156-1.410157h106.839844c.777344 0 1.410156.632813 1.410156 1.410157v88.433593h-5.164062v-13.960937c0-12.402344-10.089844-22.492187-22.492188-22.492187zm-46.855469 36.453124h-14.980468v-13.960937c0-4.128906 3.359375-7.488281 7.488281-7.488281 4.132813 0 7.492187 3.359375 7.492187 7.488281zm-68.742187 0v-15.460937c5.183594.835937 10.5 1.277344 15.917969 1.277344h2.675781v14.183593zm-41.039063-143.941406c9.628907 6.722656 20.488282 11.796875 32.175782 14.796875v23.222657c0 4.144531 3.359375 7.503906 7.5 7.503906 4.144531 0 7.5-3.359375 7.5-7.503906v-20.585938c3.21875.316406 6.480468.480469 9.78125.480469h34.738281v21.183593h-15.652344c-9.046875 0-16.410156 7.359376-16.410156 16.410157v59.25h-2.675781c-3.308594 0-6.570313-.210938-9.78125-.582031v-46.148438c0-4.144531-3.355469-7.503906-7.5-7.503906-4.140625 0-7.5 3.359375-7.5 7.503906v43.023438c-12.09375-3.707032-23.042969-10.042969-32.175782-18.351563zm106.695313 39.09375v-21.179687h44.535156v21.179687zm76.1875 0h-16.648437v-21.179687h35.738281c2.957031 0 5.882812-.136719 8.777343-.390625v96.777344c-2.886718.300781-5.816406.453124-8.777343.453124h-2.679688v-59.246093c0-9.050781-7.359375-16.414063-16.410156-16.414063zm42.867187 72.242188v-96.292969c11.660157-2.867187 22.523438-7.78125 32.179688-14.351563v92.875c-9.183594 8.097657-20.125 14.238282-32.179688 17.769532zm-253.507812-140.597656c3.679688 5.914062 7.957031 11.417968 12.753906 16.417968v87.515625c-8.074218-12.96875-12.753906-28.257812-12.753906-44.628906zm258.375 199.570312h-202.308594v-8.125c0-1.789062 1.453125-3.242188 3.238282-3.242188h195.832031c1.785156 0 3.238281 1.453126 3.238281 3.242188zm-12.730469-26.367188h-18.59375v-14.183593h2.679688c5.414062 0 10.730469-.441407 15.914062-1.277344zm68.796875-113.898437c0 17.03125-5.070312 32.894531-13.753906 46.1875v-88.050781c5.203125-5.273438 9.820312-11.121094 13.753906-17.441406zm0 0"/><path d="m70.261719 313.542969c.035156.015625.066406.03125.101562.046875 8.59375 3.683594 18.011719 5.785156 27.890625 5.976562h.007813.003906c.484375.007813.960937.035156 1.449219.035156h145.015625c.484375 0 .964843-.027343 1.449219-.035156h.003906.007812c9.878906-.191406 19.296875-2.292968 27.886719-5.976562.035156-.015625.070313-.03125.105469-.046875 26.589844-11.453125 45.257812-37.910157 45.257812-68.652344 0-41.195313-33.515625-74.710937-74.710937-74.710937h-145.019531c-41.195313 0-74.710938 33.515624-74.710938 74.710937 0 30.742187 18.667969 57.199219 45.261719 68.652344zm168.417969-56.410157v47.46875h-30.449219c-2.980469-14.542968-14.464844-26.027343-29.007813-29.011718v-18.457032zm-66.957032 32.703126c9.644532 0 17.875 6.167968 20.964844 14.765624h-41.929688c3.085938-8.597656 11.316407-14.765624 20.964844-14.765624zm-7.503906-14.246094c-14.542969 2.984375-26.023438 14.46875-29.007812 29.011718h-29.449219v-47.46875h58.457031zm140.222656-30.699219c0 20.316406-10.210937 38.285156-25.753906 49.074219v-13.316406c0-4.140626-3.359375-7.5-7.503906-7.5-4.140625 0-7.5 3.359374-7.5 7.5v20.851562c-3.222656 1.082031-6.558594 1.910156-10 2.429688v-54.296876c0-4.144531-3.359375-7.5-7.5-7.5h-147.921875c-4.144531 0-7.5 3.355469-7.5 7.5v54.296876c-3.441407-.519532-6.78125-1.347657-10.003907-2.429688v-60.808594c0-4.71875 3.84375-8.5625 8.5625-8.5625h165.800782c4.722656 0 8.5625 3.84375 8.5625 8.5625v9.957032c0 4.140624 3.359375 7.5 7.503906 7.5 4.140625 0 7.5-3.359376 7.5-7.5v-9.957032c0-7.578125-3.601562-14.328125-9.175781-18.640625v-31.464843c20.585937 9.433593 34.929687 30.21875 34.929687 54.304687zm-155.832031-27.761719v-31.949218h47.222656v31.949218zm105.898437-31.132812v31.132812h-43.675781v-31.949218h33.898438c3.328125 0 6.59375.289062 9.777343.816406zm-120.898437-.816406v31.949218h-43.675781v-31.132812c3.1875-.527344 6.449218-.816406 9.78125-.816406zm-58.675781 5.40625v31.464843c-5.578125 4.3125-9.175782 11.0625-9.175782 18.640625v53.273438c-15.546874-10.789063-25.753906-28.757813-25.753906-49.074219 0-24.085937 14.34375-44.871094 34.929688-54.304687zm0 0"/><path d="m203.703125 387.046875h-62.964844c-7.429687 0-13.472656 6.042969-13.472656 13.476563v13.425781c0 7.433593 6.042969 13.476562 13.472656 13.476562h62.964844c7.429687 0 13.472656-6.042969 13.472656-13.476562v-13.425781c.003907-7.433594-6.042969-13.476563-13.472656-13.476563zm-1.527344 25.378906h-59.910156v-10.378906h59.910156zm0 0"/></svg>