<svg height="511pt" viewBox="0 -68 511.99884 511" width="511pt" xmlns="http://www.w3.org/2000/svg"><path d="m10 317.945312h44.765625c14.332031 0 26.253906-10.472656 28.535156-24.167968h10.800781c2.804688 9.929687 11.941407 17.230468 22.757813 17.230468h7.277344v5.441407c0 12.53125 10.195312 22.730469 22.726562 22.730469h40.871094c12.53125 0 22.726563-10.199219 22.726563-22.730469v-5.441407h7.277343c9.238281 0 17.253907-5.328124 21.144531-13.070312 6.925782 2.9375 13.21875 7.351562 18.355469 13.046875l27.410157 30.359375c19.984374 22.136719 48.546874 34.832031 78.367187 34.832031h72.265625c27.695312 0 50.226562-22.53125 50.226562-50.226562v-8.453125l8.113282-4.15625c12.023437-6.15625 19.207031-18.839844 18.300781-32.316406l-7.328125-108.957032c-.976562-14.515625-5.613281-28.679687-13.40625-40.96875-11.4375-18.03125-31.015625-28.792968-52.371094-28.792968h-95.585937c-15.492188 0-30.832031 4-44.351563 11.570312l-30.136718 16.871094c-8.019532 4.488281-17.117188 6.863281-26.3125 6.863281h-33.980469c-3.570313-7.886719-11.507813-13.394531-20.714844-13.394531h-40.867187c-9.207032 0-17.148438 5.507812-20.714844 13.394531h-49.535156c-5.308594-6.121094-13.132813-10-21.851563-10h-44.765625c-5.523438 0-10 4.476563-10 10v170.335937c0 5.523438 4.476562 10 10 10zm180.460938-1.496093c0 1.503906-1.222657 2.726562-2.726563 2.726562h-40.867187c-1.507813 0-2.730469-1.222656-2.730469-2.726562v-5.441407h46.328125v5.441407zm30.929687-42.597657v13.503907c0 2.015625-1.636719 3.652343-3.652344 3.652343h-100.875c-2.015625 0-3.652343-1.636718-3.652343-3.652343v-100.878907c0-2.011718 1.636718-3.652343 3.652343-3.652343h100.875c2.015625 0 3.652344 1.640625 3.652344 3.652343zm57.121094-125.65625 30.136719-16.871093c10.542968-5.902344 22.5-9.019531 34.582031-9.019531h95.320312c14.539063 0 28.125 7.398437 35.871094 19.703124 5.9375 9.429688 9.46875 20.285157 10.214844 31.402344l7.332031 108.953125c.367188 5.488281-2.566406 10.667969-7.460938 13.175781-7.5 3.839844-15.808593 5.84375-24.234374 5.84375h-58.101563c-5.324219 0-9.976563 4.019532-10.320313 9.335938-.375 5.824219 4.234376 10.664062 9.980469 10.664062h63.675781v4.566407c0 16.695312-13.535156 30.226562-30.226562 30.226562h-72.265625c-24.171875 0-47.324219-10.292969-63.519531-28.234375l-27.410156-30.359375c-8.402344-9.304687-19.023438-16.15625-30.695313-20.0625v-91.039062c0-13.0625-10.589844-23.652344-23.652344-23.652344h-7.277343v-5.214844h31.96875c12.605468-.003906 25.082031-3.257812 36.082031-9.417969zm-134.375 9.414063v-10.664063c0-1.503906 1.222656-2.726562 2.726562-2.726562h40.871094c1.503906 0 2.726563 1.222656 2.726563 2.726562v15.878907h-46.328126v-5.214844zm-20 5.214844h-7.277344c-13.039063 0-23.652344 10.609375-23.652344 23.652343v87.300782h-9.507812v-116.167969h40.4375zm-104.136719-15.214844h34.765625c4.925781 0 8.933594 4.003906 8.933594 8.929687v132.476563c0 1.75-.515625 3.382813-1.390625 4.761719-1.585938 2.5-4.371094 4.167968-7.542969 4.167968h-34.765625zm0 0"/><path d="m444.636719 239.578125c.183593 5.40625 4.621093 9.667969 9.988281 9.667969.113281 0 .230469-.003906.34375-.007813 5.519531-.183593 9.84375-4.808593 9.660156-10.328125-1.453125-43.203125-9.230468-82.179687-9.558594-83.816406-1.09375-5.414062-6.371093-8.914062-11.78125-7.824219-5.414062 1.089844-8.917968 6.363281-7.824218 11.777344.078125.386719 7.777344 38.972656 9.171875 80.53125zm0 0"/><path d="m463.867188 270.367188c-.25-.601563-.558594-1.179688-.917969-1.722657-.371094-.546875-.789063-1.058593-1.25-1.519531-.460938-.460938-.96875-.878906-1.519531-1.25-.539063-.359375-1.121094-.667969-1.71875-.917969-.613282-.25-1.230469-.441406-1.871094-.570312-1.289063-.261719-2.621094-.261719-3.910156 0-.640626.128906-1.269532.320312-1.871094.570312-.609375.25-1.191406.558594-1.730469.917969-.550781.371094-1.058594.789062-1.519531 1.25-.460938.460938-.878906.972656-1.238282 1.519531-.359374.542969-.671874 1.121094-.921874 1.722657-.25.609374-.4375 1.238281-.570313 1.867187-.128906.652344-.199219 1.3125-.199219 1.960937 0 .652344.070313 1.3125.199219 1.949219.132813.640625.320313 1.269531.570313 1.871094s.5625 1.191406.921874 1.730469c.359376.539062.777344 1.058594 1.238282 1.519531.460937.460937.96875.878906 1.519531 1.242187.539063.359376 1.121094.667969 1.730469.917969.601562.25 1.230468.441407 1.871094.570313.640624.128906 1.300781.199218 1.949218.199218.648438 0 1.308594-.070312 1.960938-.199218.640625-.128906 1.257812-.320313 1.871094-.570313.597656-.25 1.179687-.558593 1.71875-.917969.550781-.363281 1.058593-.78125 1.519531-1.242187.460937-.460937.878906-.980469 1.25-1.519531.359375-.539063.667969-1.128906.917969-1.730469s.441406-1.230469.570312-1.871094c.132812-.636719.191406-1.296875.191406-1.949219 0-.648437-.058594-1.308593-.191406-1.960937-.128906-.628906-.320312-1.257813-.570312-1.867187zm0 0"/><path d="m204.632812 238.1875c4.625-9.832031 2.722657-21.230469-4.839843-29.03125-2.707031-2.789062-5.894531-4.855469-9.332031-6.179688-6.167969-2.378906-13.128907-2.332031-19.539063.4375l-4.851563 2.097657-4.851562-2.097657c-5.566406-2.410156-11.558594-2.765624-17.082031-1.257812-4.367188 1.195312-8.445313 3.554688-11.785157 7-7.5625 7.800781-9.464843 19.195312-4.84375 29.03125.367188.777344.828126 1.5 1.378907 2.160156l15.25 18.246094 12.6875 15.183594 1.574219 1.882812c1.902343 2.273438 4.710937 3.585938 7.675781 3.585938 2.960937 0 5.769531-1.3125 7.671875-3.585938l1.574218-1.882812 15.144532-18.121094 12.792968-15.308594c.546876-.65625 1.011719-1.382812 1.375-2.160156zm-17.734374-9.457031-20.824219 24.921875-20.828125-24.921875c-.851563-2.828125.699218-4.863281 1.464844-5.65625.855468-.875 3.199218-2.761719 6.570312-1.304688l8.820312 3.816407c2.535157 1.097656 5.40625 1.097656 7.941407 0l8.820312-3.816407c3.371094-1.457031 5.71875.429688 6.570313 1.308594.765625.789063 2.316406 2.824219 1.464844 5.652344zm0 0"/><path d="m210.128906 262.175781c-2.320312-2.320312-5.769531-3.390625-9.019531-2.730469-.640625.128907-1.269531.320313-1.871094.570313-.609375.25-1.1875.558594-1.730469.921875-.546874.359375-1.058593.777344-1.519531 1.238281-1.859375 1.859375-2.929687 4.441407-2.929687 7.070313 0 .648437.070312 1.308594.199218 1.949218.132813.640626.320313 1.269532.570313 1.878907.25.601562.5625 1.183593.921875 1.722656.359375.550781.78125 1.058594 1.238281 1.519531.460938.460938.972657.878906 1.519531 1.25.542969.359375 1.121094.660156 1.730469.910156.601563.257813 1.230469.449219 1.871094.578126.640625.132812 1.300781.191406 1.949219.191406 2.632812 0 5.210937-1.070313 7.070312-2.929688.117188-.117187.222656-.246094.332032-.367187.328124-.363281.640624-.742188.917968-1.152344.21875-.328125.40625-.671875.582032-1.019531.117187-.230469.230468-.464844.328124-.703125.25-.609375.449219-1.238281.582032-1.878907.128906-.640624.1875-1.300781.1875-1.949218 0-2.464844-.949219-4.875-2.597656-6.703125-.109376-.121094-.214844-.25-.332032-.367188zm0 0"/><path d="m180.605469 104.734375c1.5625.917969 3.316406 1.378906 5.066406 1.378906 1.675781 0 3.355469-.421875 4.867187-1.265625l24.890626-13.863281c2.339843-1.304687 4.992187-1.992187 7.671874-1.992187h27.8125c19.957032 0 36.195313-16.238282 36.195313-36.199219v-16.09375c0-19.960938-16.238281-36.199219-36.195313-36.199219h-39.042968c-19.960938 0-36.199219 16.238281-36.199219 36.199219v59.414062c0 3.546875 1.878906 6.824219 4.933594 8.621094zm15.066406-68.035156c0-8.933594 7.269531-16.199219 16.199219-16.199219h39.039062c8.933594 0 16.199219 7.265625 16.199219 16.199219v16.09375c0 8.929687-7.265625 16.199219-16.199219 16.199219h-27.8125c-6.074218 0-12.09375 1.5625-17.402344 4.519531l-10.023437 5.582031zm0 0"/><path d="m89.570312 106.152344h27.820313c1.84375 0 3.667969.472656 5.277344 1.371094l20.132812 11.214843c1.515625.84375 3.191407 1.265625 4.867188 1.265625 1.753906 0 3.503906-.460937 5.066406-1.378906 3.058594-1.792969 4.933594-5.074219 4.933594-8.621094v-53.390625c0-14.265625-11.605469-25.871093-25.871094-25.871093h-42.226563c-14.265624 0-25.871093 11.605468-25.871093 25.871093v23.667969c0 14.265625 11.605469 25.871094 25.871093 25.871094zm-5.871093-49.539063c0-3.238281 2.632812-5.871093 5.871093-5.871093h42.226563c3.238281 0 5.871094 2.632812 5.871094 5.871093v36.371094l-5.265625-2.933594c-4.578125-2.550781-9.769532-3.898437-15.011719-3.898437h-27.820313c-3.238281 0-5.871093-2.632813-5.871093-5.871094zm0 0"/></svg>