<svg height="512" viewBox="0 0 64 64" width="512" xmlns="http://www.w3.org/2000/svg"><path d="m52 48h-5v-4h-6.471c-3.684-5.5-4.372-13.422-4.5-16.084a7.005 7.005 0 0 0 5.971-6.916v-.063c7.077-.637 9-7.97 9-11.937v-4a1 1 0 0 0 -1-1h-8v-1a1 1 0 0 0 -1-1h-18a1 1 0 0 0 -1 1v1h-8a1 1 0 0 0 -1 1v4c0 3.967 1.923 11.3 9 11.937v.063a7.006 7.006 0 0 0 5.971 6.916c-.125 2.66-.809 10.572-4.5 16.084h-6.471v4h-5v14h40zm-10-38h2.933c-.172 1.5-.78 4.214-2.933 4.859zm0 6.917c3.925-.68 5-5.355 5-7.917a1 1 0 0 0 -1-1h-4v-2h7v3a15.3 15.3 0 0 1 -1.051 5.122c-1.185 2.9-3.184 4.517-5.949 4.824zm-20-2.058c-2.153-.645-2.761-3.359-2.933-4.859h2.933zm0-6.859h-4a1 1 0 0 0 -1 1c0 2.562 1.075 7.237 5 7.917v2.028c-6.893-.775-7-9.556-7-9.945v-3h7zm2 13v-17h16v17a5.006 5.006 0 0 1 -5 5h-6a5.006 5.006 0 0 1 -5-5zm5.974 7h4.052c.117 2.681.748 10.147 4.143 16h-12.338c3.395-5.853 4.026-13.319 4.143-16zm-10.974 18h26v2h-26zm31 14h-36v-10h36z"/><path d="m20 58h24v-6h-24zm2-4h20v2h-20z"/><path d="m16 52h2v2h-2z"/><path d="m16 56h2v2h-2z"/><path d="m46 52h2v2h-2z"/><path d="m46 56h2v2h-2z"/><path d="m38 21v-3h-2v3a1 1 0 0 1 -1 1h-3v2h3a3 3 0 0 0 3-3z"/><path d="m36 14h2v2h-2z"/><path d="m17 31a1 1 0 0 0 2 0 3 3 0 0 1 3-3 1 1 0 0 0 0-2 3 3 0 0 1 -3-3 1 1 0 0 0 -2 0 3 3 0 0 1 -3 3 1 1 0 0 0 0 2 3 3 0 0 1 3 3zm1-5.031a4.988 4.988 0 0 0 1.031 1.031 4.988 4.988 0 0 0 -1.031 1.031 4.988 4.988 0 0 0 -1.031-1.031 4.988 4.988 0 0 0 1.031-1.031z"/><path d="m46 30a1 1 0 0 0 -2 0 3 3 0 0 1 -3 3 1 1 0 0 0 0 2 3 3 0 0 1 3 3 1 1 0 0 0 2 0 3 3 0 0 1 3-3 1 1 0 0 0 0-2 3 3 0 0 1 -3-3zm-1 5.031a4.988 4.988 0 0 0 -1.031-1.031 4.988 4.988 0 0 0 1.031-1.031 4.988 4.988 0 0 0 1.031 1.031 4.988 4.988 0 0 0 -1.031 1.031z"/></svg>