<svg height="512pt" viewBox="-43 0 512 512" width="512pt" xmlns="http://www.w3.org/2000/svg"><g fill="#18191b"><path d="m367.113281 226.464844h-4.59375l-14.050781-142.253906c-.21875-10.699219-8.964844-19.332032-19.683594-19.332032h-51.613281v-45.136718c0-10.886719-8.832031-19.742188-19.691406-19.742188h-90.703125c-10.855469 0-19.6875 8.855469-19.6875 19.742188v45.136718h-51.613282c-10.71875 0-19.464843 8.632813-19.6875 19.328125l-9.5625 96.851563c-.40625 4.121094 2.601563 7.792968 6.726563 8.199218 4.128906.398438 7.792969-2.605468 8.199219-6.726562l2.695312-27.292969c13.792969 44.347657 52.011719 77.960938 98.769532 84.902344v16.078125c0 20.371094 16.515624 36.945312 36.816406 36.945312h3.492187c10.320313 0 18.722657-8.421874 18.722657-18.773437v-34.25c46.753906-6.9375 84.972656-40.554687 98.765624-84.898437l25.457032 257.769531c2.710937 27.417969-9.09375 54.171875-30.804688 69.820312-12.859375 9.269531-27.992187 14.167969-43.761718 14.167969h-158.347657c-15.769531 0-30.902343-4.898438-43.761719-14.167969-21.710937-15.648437-33.515624-42.402343-30.804687-69.820312l19.726563-199.738281c.40625-4.121094-2.605469-7.792969-6.726563-8.199219-4.121094-.398438-7.792969 2.605469-8.203125 6.726562l-1.449219 14.667969h-2.292969c-32.777343 0-59.445312 26.769531-59.445312 59.675781v122.210938c0 13.867187 11.246094 25.144531 25.066406 25.144531h18.820313c3.375 24.558594 16.398437 46.984375 36.535156 61.5 15.429687 11.121094 33.597656 17 52.535156 17h158.347657c18.9375 0 37.101562-5.878906 52.53125-17 20.136718-14.515625 33.164062-36.941406 36.539062-61.5h21.113281c13.824219 0 25.066407-11.28125 25.066407-25.144531v-122.214844c0-32.902344-26.664063-59.675781-59.441407-59.675781zm-205.023437-206.722656c0-2.570313 2.144531-4.742188 4.6875-4.742188h90.703125c2.542969 0 4.691406 2.171875 4.691406 4.742188v45.136718h-11.484375v-30.113281c0-4.503906-3.660156-8.164063-8.160156-8.164063h-60.796875c-4.5 0-8.160157 3.660157-8.160157 8.164063v30.113281h-11.480468zm73.597656 45.136718h-47.117188v-23.277344h47.117188zm-9.042969 209.511719c0 2.046875-1.703125 3.773437-3.722656 3.773437h-3.492187c-12.03125 0-21.816407-9.84375-21.816407-21.945312v-14.789062c.980469.023437 1.964844.039062 2.949219.039062h23.132812c.988282 0 1.96875-.015625 2.949219-.039062zm104.292969-155.675781c0 59.414062-48.109375 107.75-107.242188 107.75h-23.132812c-58.0625 0-105.488281-46.601563-107.1875-104.535156h146.3125c4.140625 0 7.5-3.355469 7.5-7.5 0-4.140626-3.359375-7.5-7.5-7.5h-146.363281v-26.355469c0-.039063-.007813-.082031-.007813-.121094.652344-.355469 1.382813-.578125 2.160156-.578125h233.308594c.8125 0 1.570313.238281 2.242188.625-.050782.359375-.089844.722656-.089844 1.097656zm-315.9375 289.640625v-122.214844c0-24.632813 19.9375-44.675781 44.445312-44.675781h.8125l-3.898437 39.472656h-20.535156c-4.140625 0-7.5 3.359375-7.5 7.5s3.359375 7.5 7.5 7.5h19.054687l-11.417968 115.597656c-.230469 2.328125-.359376 4.652344-.417969 6.964844h-17.976563c-5.550781 0-10.066406-4.550781-10.066406-10.144531zm396.554688 0c0 5.59375-4.515626 10.144531-10.066407 10.144531h-20.269531c-.058594-2.316406-.191406-4.636719-.417969-6.964844l-11.417969-115.597656h21.351563c4.140625 0 7.5-3.359375 7.5-7.5s-3.359375-7.5-7.5-7.5h-22.832031l-3.898438-39.472656h3.109375c24.507813 0 44.445313 20.042968 44.445313 44.675781v122.214844zm0 0"/><path d="m110.722656 408.554688v5.1875c0 31.136718 25.234375 56.46875 56.25 56.46875h90.3125c31.019532 0 56.253906-25.332032 56.253906-56.46875v-5.1875c0-10.351563-8.398437-18.773438-18.722656-18.773438h-82.34375c-4.144531 0-7.5 3.359375-7.5 7.5 0 4.144531 3.355469 7.5 7.5 7.5h82.34375c2.015625 0 3.722656 1.730469 3.722656 3.773438v5.1875c0 22.867187-18.507812 41.46875-41.253906 41.46875h-90.3125c-22.746094 0-41.25-18.601563-41.25-41.46875v-5.1875c0-2.046876 1.703125-3.773438 3.722656-3.773438h52.417969c4.144531 0 7.5-3.355469 7.5-7.5 0-4.140625-3.355469-7.5-7.5-7.5h-52.417969c-10.324218 0-18.722656 8.421875-18.722656 18.773438zm0 0"/><path d="m165.6875 358.328125h92.886719c4.140625 0 7.5-3.355469 7.5-7.5 0-4.140625-3.359375-7.5-7.5-7.5h-92.886719c-4.144531 0-7.5 3.359375-7.5 7.5 0 4.144531 3.355469 7.5 7.5 7.5zm0 0"/><path d="m165.6875 324.121094h92.886719c4.140625 0 7.5-3.355469 7.5-7.5 0-4.140625-3.359375-7.5-7.5-7.5h-92.886719c-4.144531 0-7.5 3.359375-7.5 7.5 0 4.144531 3.355469 7.5 7.5 7.5zm0 0"/></g></svg>