<svg height="512pt" viewBox="0 -38 512 512" width="512pt" xmlns="http://www.w3.org/2000/svg"><g fill-rule="evenodd"><path d="m418.386719 351.769531c-5.445313-.914062-10.609375 2.746094-11.527344 8.191407l-9.5625 56.53125h-86.148437c1.109374-2.421876 1.960937-4.996094 2.503906-7.695313l18.402344-91.285156c4.433593-15.933594-2.941407-32.949219-17.667969-40.605469l-87.46875-45.457031 21.101562-57.011719 55.035157 15.445312c3.105468.871094 6.300781 1.3125 9.5 1.3125 10.414062 0 20.230468-4.585937 26.929687-12.582031l46.902344-55.980469c6.023437-7.199218 8.882812-16.3125 8.050781-25.65625-.832031-9.351562-5.253906-17.816406-12.449219-23.835937-6.3125-5.28125-14.3125-8.191406-22.535156-8.191406-10.4375 0-20.265625 4.589843-26.953125 12.585937l-32.316406 38.570313-37.105469-10.414063c14.625-10.628906 24.15625-27.851562 24.15625-47.273437 0-32.210938-26.207031-58.417969-58.417969-58.417969-32.214844 0-58.421875 26.207031-58.421875 58.417969 0 15.6875 6.230469 29.941406 16.328125 40.445312l-69.417968 3.808594c-15.722657.792969-29.078126 12.089844-32.46875 27.453125l-14.617188 65.492188c-2.019531 9.148437-.359375 18.539062 4.683594 26.4375 5.039062 7.898437 12.855468 13.363281 22.003906 15.386718 2.496094.550782 5.050781.828125 7.589844.828125 16.3125 0 30.707031-11.570312 34.226562-27.496093l8.800782-39.449219 27.257812-1.488281-55.933594 151.117187-42.042968-13.730469c-3.527344-1.144531-7.183594-1.726562-10.867188-1.726562-15.257812 0-28.679688 9.753906-33.402344 24.273437-2.902344 8.925781-2.152344 18.445313 2.105469 26.808594 4.257813 8.359375 11.519531 14.5625 20.429687 17.460937l73.359376 23.953126c3.761718 1.324218 7.679687 1.996093 11.644531 1.992187 14.679687 0 27.941406-9.261719 32.984375-23.019531l29.257812-79.050782 56.234375 29.230469-13.6875 67.878907c-1.46875 7.34375-.574219 14.792968 2.496094 21.46875h-237.359375c-5.523438 0-10 4.476562-10 10 0 5.523437 4.476562 10 10 10h263.496094c1.917968.320312 3.859375.492187 5.789062.492187 1.972656 0 3.90625-.171875 5.800782-.492187h120.660156c4.878906 0 9.046875-3.523438 9.863281-8.332032l10.96875-64.863281c.921875-5.445313-2.746094-10.605469-8.191406-11.527344zm-189.574219-331.769531c21.1875 0 38.421875 17.234375 38.421875 38.417969 0 21.105469-17.105469 38.28125-38.179687 38.414062-1.023438-.082031-2.054688-.121093-3.082032-.109375-19.859375-1.460937-35.578125-18.078125-35.578125-38.304687 0-21.183594 17.234375-38.417969 38.417969-38.417969zm37.902344 390.265625c-2.230469-3.351563-3.027344-7.367187-2.242188-11.304687l15.171875-75.242188c.882813-4.371094-1.234375-8.796875-5.191406-10.851562l-72.96875-37.925782c-1.441406-.75-3.023437-1.125-4.613281-1.125-1.214844 0-2.4375.222656-3.601563.671875-2.675781 1.03125-4.777343 3.164063-5.773437 5.855469l-33.203125 89.707031c-2.179688 5.941407-7.894531 9.933594-14.21875 9.933594-1.71875.003906-3.425781-.292969-5.070313-.878906-.082031-.03125-.167968-.058594-.25-.085938l-73.488281-23.996093c-3.84375-1.25-6.96875-3.921876-8.804687-7.523438-1.832032-3.601562-2.15625-7.703125-.90625-11.546875 2.035156-6.253906 7.8125-10.457031 14.382812-10.457031 1.582031 0 3.15625.25 4.671875.742187l51.175781 16.710938c5.105469 1.667969 10.617188-.996094 12.480469-6.035157l64.5625-174.425781c1.167969-3.15625.667969-6.691406-1.332031-9.40625-2-2.707031-5.242188-4.230469-8.59375-4.046875l-50.03125 2.730469c-4.476563.242187-8.238282 3.433594-9.214844 7.808594l-10.457031 46.863281c-1.515625 6.855469-7.699219 11.832031-14.699219 11.832031-1.09375 0-2.195312-.121093-3.277344-.359375-3.933594-.871094-7.292968-3.21875-9.460937-6.613281-2.164063-3.394531-2.878907-7.429687-2.015625-11.34375l14.609375-65.496094c1.464843-6.613281 7.199219-11.472656 13.996093-11.8125 0 0 105.851563-5.804687 105.851563-5.804687 1.246094-.070313 2.464844-.050782 3.714844-.023438 1.050781.023438 1.976562.265625 3.25.691406l69.828125 19.601563c3.789062 1.0625 7.84375-.191406 10.367187-3.207031l36.472657-43.527344c2.882812-3.445312 7.117187-5.421875 11.617187-5.421875 3.589844 0 6.941406 1.21875 9.699219 3.527344 3.101562 2.59375 5.007812 6.238281 5.363281 10.265625.359375 4.027344-.871094 7.953125-3.464844 11.050781l-46.894531 55.972656c-2.890625 3.449219-7.117188 5.429688-11.601562 5.429688-1.375 0-2.753907-.191407-4.097657-.570313l-63.914062-17.9375c-5.015625-1.410156-10.269531 1.273438-12.078125 6.15625l-27.367188 73.9375c-1.75 4.726563.292969 10.015625 4.769532 12.34375l95.296874 49.527344c6.40625 3.332031 9.589844 10.769531 7.566407 17.6875-.078125.273438-.148438.554688-.203125.832031l-18.484375 91.6875c-1.152344 5.746094-5.515625 10.199219-10.972657 11.632813h-7.539062c-3.617188-.925782-6.730469-3.101563-8.816406-6.230469zm0 0"/><path d="m478.609375 161.097656h-75.164063c-18.410156 0-33.390624 14.976563-33.390624 33.390625 0 18.414063 14.980468 33.394531 33.390624 33.394531h25.75l-8.996093 53.191407c-.921875 5.449219 2.746093 10.609375 8.191406 11.53125.5625.09375 1.125.140625 1.679687.140625 4.789063 0 9.023438-3.453125 9.847657-8.335938l9.5625-56.527344h29.128906c18.410156 0 33.390625-14.980468 33.390625-33.394531 0-18.414062-14.980469-33.390625-33.390625-33.390625zm0 46.78125h-75.164063c-7.382812 0-13.390624-6.007812-13.390624-13.390625 0-7.386719 6.007812-13.394531 13.390624-13.394531h75.164063c7.382813 0 13.390625 6.007812 13.390625 13.394531 0 7.382813-6.007812 13.390625-13.390625 13.390625zm0 0"/><path d="m423.386719 312.1875c-5.507813 0-10 4.488281-10 10 0 5.507812 4.492187 10 10 10 5.507812 0 10-4.492188 10-10 0-5.511719-4.492188-10-10-10zm0 0"/></g></svg>